<svg aria-hidden="true" style="position: absolute; width: 0; height: 0; overflow: hidden;" version="1.1" xmlns="http://www.w3.org/2000/svg" xmlns:xlink="http://www.w3.org/1999/xlink">
<defs>
<symbol id="icon-error" viewBox="0 0 24 24">
<path d="M12.984 12.984v-6h-1.969v6h1.969zM12.984 17.016v-2.016h-1.969v2.016h1.969zM12 2.016q4.125 0 7.055 2.93t2.93 7.055-2.93 7.055-7.055 2.93-7.055-2.93-2.93-7.055 2.93-7.055 7.055-2.93z"></path>
</symbol>
<symbol id="icon-error_outline" viewBox="0 0 24 24">
<path d="M12 20.016q3.281 0 5.648-2.367t2.367-5.648-2.367-5.648-5.648-2.367-5.648 2.367-2.367 5.648 2.367 5.648 5.648 2.367zM12 2.016q4.125 0 7.055 2.93t2.93 7.055-2.93 7.055-7.055 2.93-7.055-2.93-2.93-7.055 2.93-7.055 7.055-2.93zM11.016 6.984h1.969v6h-1.969v-6zM11.016 15h1.969v2.016h-1.969v-2.016z"></path>
</symbol>
<symbol id="icon-equalizer" viewBox="0 0 24 24">
<path d="M15.984 9h4.031v11.016h-4.031v-11.016zM3.984 20.016v-8.016h4.031v8.016h-4.031zM9.984 20.016v-16.031h4.031v16.031h-4.031z"></path>
</symbol>
<symbol id="icon-loop" viewBox="0 0 24 24">
<path d="M12 18v-3l3.984 3.984-3.984 4.031v-3q-3.281 0-5.648-2.367t-2.367-5.648q0-2.344 1.266-4.266l1.453 1.453q-0.703 1.266-0.703 2.813 0 2.484 1.758 4.242t4.242 1.758zM12 3.984q3.281 0 5.648 2.367t2.367 5.648q0 2.344-1.266 4.266l-1.453-1.453q0.703-1.266 0.703-2.813 0-2.484-1.758-4.242t-4.242-1.758v3l-3.984-3.984 3.984-4.031v3z"></path>
</symbol>
<symbol id="icon-pause1" viewBox="0 0 24 24">
<path d="M14.016 5.016h3.984v13.969h-3.984v-13.969zM6 18.984v-13.969h3.984v13.969h-3.984z"></path>
</symbol>
<symbol id="icon-play_arrow" viewBox="0 0 24 24">
<path d="M8.016 5.016l10.969 6.984-10.969 6.984v-13.969z"></path>
</symbol>
<symbol id="icon-replay" viewBox="0 0 24 24">
<path d="M12 5.016q3.328 0 5.672 2.344t2.344 5.625q0 3.328-2.367 5.672t-5.648 2.344-5.648-2.344-2.367-5.672h2.016q0 2.484 1.758 4.242t4.242 1.758 4.242-1.758 1.758-4.242-1.758-4.242-4.242-1.758v4.031l-5.016-5.016 5.016-5.016v4.031z"></path>
</symbol>
<symbol id="icon-stop" viewBox="0 0 24 24">
<path d="M6 6h12v12h-12v-12z"></path>
</symbol>
<symbol id="icon-volume_down" viewBox="0 0 24 24">
<path d="M5.016 9h3.984l5.016-5.016v16.031l-5.016-5.016h-3.984v-6zM18.516 12q0 2.766-2.531 4.031v-8.063q1.031 0.516 1.781 1.711t0.75 2.32z"></path>
</symbol>
<symbol id="icon-volume_mute" viewBox="0 0 24 24">
<path d="M6.984 9h4.031l4.969-5.016v16.031l-4.969-5.016h-4.031v-6z"></path>
</symbol>
<symbol id="icon-volume_off" viewBox="0 0 24 24">
<path d="M12 3.984v4.219l-2.109-2.109zM4.266 3l16.734 16.734-1.266 1.266-2.063-2.063q-1.547 1.313-3.656 1.828v-2.063q1.172-0.328 2.25-1.172l-4.266-4.266v6.75l-5.016-5.016h-3.984v-6h4.734l-4.734-4.734zM18.984 12q0-2.391-1.383-4.219t-3.586-2.484v-2.063q3.047 0.656 5.016 3.117t1.969 5.648q0 2.203-1.031 4.172l-1.5-1.547q0.516-1.266 0.516-2.625zM16.5 12q0 0.422-0.047 0.609l-2.438-2.438v-2.203q1.031 0.516 1.758 1.688t0.727 2.344z"></path>
</symbol>
<symbol id="icon-volume_up" viewBox="0 0 24 24">
<path d="M14.016 3.234q3.047 0.656 5.016 3.117t1.969 5.648-1.969 5.648-5.016 3.117v-2.063q2.203-0.656 3.586-2.484t1.383-4.219-1.383-4.219-3.586-2.484v-2.063zM16.5 12q0 2.813-2.484 4.031v-8.063q1.031 0.516 1.758 1.688t0.727 2.344zM3 9h3.984l5.016-5.016v16.031l-5.016-5.016h-3.984v-6z"></path>
</symbol>
<symbol id="icon-fiber_new" viewBox="0 0 24 24">
<path d="M20.484 14.016v-5.016h-1.219v4.5h-1.125v-3.516h-1.266v3.516h-1.125v-4.5h-1.266v5.016q0 0.422 0.305 0.703t0.727 0.281h3.984q0.422 0 0.703-0.281t0.281-0.703zM13.5 10.266v-1.266h-3.984v6h3.984v-1.266h-2.484v-1.078h2.484v-1.266h-2.484v-1.125h2.484zM8.484 15v-6h-1.219v3.516l-2.531-3.516h-1.219v6h1.219v-3.516l2.578 3.516h1.172zM20.016 3.984q0.844 0 1.406 0.586t0.563 1.43v12q0 0.844-0.563 1.43t-1.406 0.586h-16.031q-0.844 0-1.406-0.586t-0.563-1.43v-12q0-0.844 0.563-1.43t1.406-0.586h16.031z"></path>
</symbol>
<symbol id="icon-fiber_manual_record" viewBox="0 0 24 24">
<path d="M3.984 12q0-3.281 2.367-5.648t5.648-2.367 5.648 2.367 2.367 5.648-2.367 5.648-5.648 2.367-5.648-2.367-2.367-5.648z"></path>
</symbol>
<symbol id="icon-lightbulb" viewBox="0 0 24 24">
<path d="M12 2.016q2.906 0 4.945 2.039t2.039 4.945q0 3.516-3 5.719v2.297q0 0.422-0.281 0.703t-0.703 0.281h-6q-0.422 0-0.703-0.281t-0.281-0.703v-2.297q-3-2.063-3-5.719 0-2.906 2.039-4.945t4.945-2.039zM9 21v-0.984h6v0.984q0 0.422-0.281 0.703t-0.703 0.281h-4.031q-0.422 0-0.703-0.281t-0.281-0.703z"></path>
</symbol>
<symbol id="icon-add" viewBox="0 0 24 24">
<path d="M18.984 12.984h-6v6h-1.969v-6h-6v-1.969h6v-6h1.969v6h6v1.969z"></path>
</symbol>
<symbol id="icon-clear" viewBox="0 0 24 24">
<path d="M18.984 6.422l-5.578 5.578 5.578 5.578-1.406 1.406-5.578-5.578-5.578 5.578-1.406-1.406 5.578-5.578-5.578-5.578 1.406-1.406 5.578 5.578 5.578-5.578z"></path>
</symbol>
<symbol id="icon-create" viewBox="0 0 24 24">
<path d="M20.719 7.031l-1.828 1.828-3.75-3.75 1.828-1.828q0.281-0.281 0.703-0.281t0.703 0.281l2.344 2.344q0.281 0.281 0.281 0.703t-0.281 0.703zM3 17.25l11.063-11.063 3.75 3.75-11.063 11.063h-3.75v-3.75z"></path>
</symbol>
<symbol id="icon-gesture" viewBox="0 0 24 24">
<path d="M13.875 18.563q0.656 0 1.313-0.867t0.844-2.648q-1.406 0.375-2.156 1.266t-0.75 1.5q0 0.328 0.234 0.539t0.516 0.211zM4.594 6.891l-1.734-1.688q0.469-0.563 0.844-0.938 1.266-1.266 2.719-1.266 0.891 0 1.711 0.703t0.82 2.156q0 1.406-1.313 3.281-1.313 1.828-1.828 3.516-0.281 0.797-0.164 1.359t0.492 0.563q0.422 0 1.125-0.844 1.031-1.031 2.297-2.719 2.25-2.813 4.922-2.813 1.969 0 2.93 1.289t1.102 2.883h2.484v2.484h-2.438q-0.281 3.234-1.734 4.688t-3 1.453q-1.313 0-2.25-0.914t-0.938-2.18q0-1.547 1.406-3.234t3.984-2.156q-0.047-0.375-0.070-0.516t-0.141-0.445-0.281-0.445-0.492-0.258-0.797-0.117q-1.313 0-4.078 3.422-0.797 0.984-1.102 1.336t-0.867 0.82-1.078 0.609q-1.641 0.516-2.813-0.609t-1.172-2.813q0-0.703 0.258-1.547t0.68-1.641 0.797-1.43 0.727-1.148 0.398-0.563q0.797-1.313 0.281-1.5-0.328-0.141-1.688 1.219z"></path>
</symbol>
<symbol id="icon-remove" viewBox="0 0 24 24">
<path d="M18.984 12.984h-13.969v-1.969h13.969v1.969z"></path>
</symbol>
<symbol id="icon-ballot" viewBox="0 0 24 24">
<path d="M6.984 14.016h3v3h-3v-3zM6 18h5.016v-5.016h-5.016v5.016zM6.984 6.984h3v3h-3v-3zM6 11.016h5.016v-5.016h-5.016v5.016zM18.984 21h-13.969q-0.797 0-1.406-0.609t-0.609-1.406v-13.969q0-0.797 0.609-1.406t1.406-0.609h13.969q0.797 0 1.406 0.609t0.609 1.406v13.969q0 0.797-0.609 1.406t-1.406 0.609zM12.984 16.5h5.016v-2.016h-5.016v2.016zM12.984 9.516h5.016v-2.016h-5.016v2.016z"></path>
</symbol>
<symbol id="icon-add_link" viewBox="0 0 24 24">
<path d="M18.984 12v3h3v2.016h-3v3h-1.969v-3h-3v-2.016h3v-3h1.969zM3.891 12q0 1.266 0.914 2.18t2.18 0.914h4.031v1.922h-4.031q-2.063 0-3.516-1.477t-1.453-3.539 1.453-3.539 3.516-1.477h4.031v1.922h-4.031q-1.266 0-2.18 0.914t-0.914 2.18zM20.109 12q0-1.266-0.914-2.18t-2.18-0.914h-4.031v-1.922h4.031q2.063 0 3.516 1.477t1.453 3.539h-1.875zM8.016 11.016h7.969v1.969h-7.969v-1.969z"></path>
</symbol>
<symbol id="icon-inventory" viewBox="0 0 24 24">
<path d="M20.016 6.984v-3h-16.031v3h16.031zM15 14.016v-2.016h-6v2.016h6zM20.016 2.016q0.75 0 1.359 0.586t0.609 1.383v3.047q0 1.125-0.984 1.688v11.297q0 0.797-0.656 1.383t-1.359 0.586h-13.969q-0.703 0-1.359-0.586t-0.656-1.383v-11.297q-0.984-0.563-0.984-1.688v-3.047q0-0.797 0.609-1.383t1.359-0.586h16.031z"></path>
</symbol>
<symbol id="icon-access_alarm" viewBox="0 0 24 24">
<path d="M12 20.016q2.906 0 4.945-2.063t2.039-4.969-2.039-4.945-4.945-2.039-4.945 2.039-2.039 4.945 2.039 4.969 4.945 2.063zM12 3.984q3.75 0 6.375 2.648t2.625 6.352-2.625 6.352-6.375 2.648-6.375-2.648-2.625-6.352 2.625-6.352 6.375-2.648zM12.516 8.016v5.25l3.984 2.344-0.75 1.219-4.734-2.813v-6h1.5zM7.875 3.375l-4.594 3.844-1.266-1.5 4.594-3.844zM21.984 5.719l-1.266 1.547-4.594-3.891 1.266-1.5z"></path>
</symbol>
<symbol id="icon-access_alarms" viewBox="0 0 24 24">
<path d="M12 20.016q2.906 0 4.945-2.063t2.039-4.969-2.039-4.945-4.945-2.039-4.945 2.039-2.039 4.945 2.039 4.969 4.945 2.063zM12 3.984q3.75 0 6.375 2.625t2.625 6.375-2.625 6.375-6.375 2.625-6.375-2.625-2.625-6.375 2.625-6.375 6.375-2.625zM12.516 8.016v5.297l3.984 2.391-0.797 1.219-4.688-2.906v-6h1.5zM7.922 3.422l-4.641 3.797-1.266-1.5 4.594-3.797zM21.984 5.719l-1.266 1.5-4.641-3.938 1.313-1.5z"></path>
</symbol>
<symbol id="icon-access_time" viewBox="0 0 24 24">
<path d="M12.516 6.984v5.25l4.5 2.672-0.75 1.266-5.25-3.188v-6h1.5zM12 20.016q3.281 0 5.648-2.367t2.367-5.648-2.367-5.648-5.648-2.367-5.648 2.367-2.367 5.648 2.367 5.648 5.648 2.367zM12 2.016q4.125 0 7.055 2.93t2.93 7.055-2.93 7.055-7.055 2.93-7.055-2.93-2.93-7.055 2.93-7.055 7.055-2.93z"></path>
</symbol>
<symbol id="icon-add_alarm" viewBox="0 0 24 24">
<path d="M12.984 9v3h3v2.016h-3v3h-1.969v-3h-3v-2.016h3v-3h1.969zM12 20.016q2.906 0 4.945-2.063t2.039-4.969-2.039-4.945-4.945-2.039-4.945 2.039-2.039 4.945 2.039 4.969 4.945 2.063zM12 3.984q3.75 0 6.375 2.648t2.625 6.352-2.625 6.352-6.375 2.648-6.375-2.648-2.625-6.352 2.625-6.352 6.375-2.648zM21.984 5.719l-1.266 1.547-4.594-3.891 1.266-1.5zM7.875 3.375l-4.594 3.844-1.266-1.5 4.594-3.844z"></path>
</symbol>
<symbol id="icon-keyboard1" viewBox="0 0 24 24">
<path d="M18.984 9.984v-1.969h-1.969v1.969h1.969zM18.984 12.984v-1.969h-1.969v1.969h1.969zM15.984 9.984v-1.969h-1.969v1.969h1.969zM15.984 12.984v-1.969h-1.969v1.969h1.969zM15.984 17.016v-2.016h-7.969v2.016h7.969zM6.984 9.984v-1.969h-1.969v1.969h1.969zM6.984 12.984v-1.969h-1.969v1.969h1.969zM8.016 11.016v1.969h1.969v-1.969h-1.969zM8.016 8.016v1.969h1.969v-1.969h-1.969zM11.016 11.016v1.969h1.969v-1.969h-1.969zM11.016 8.016v1.969h1.969v-1.969h-1.969zM20.016 5.016q0.797 0 1.383 0.586t0.586 1.383v10.031q0 0.797-0.586 1.383t-1.383 0.586h-16.031q-0.797 0-1.383-0.586t-0.586-1.383v-10.031q0-0.797 0.586-1.383t1.383-0.586h16.031z"></path>
</symbol>
<symbol id="icon-keyboard_arrow_down" viewBox="0 0 24 24">
<path d="M7.406 8.578l4.594 4.594 4.594-4.594 1.406 1.406-6 6-6-6z"></path>
</symbol>
<symbol id="icon-keyboard_arrow_left" viewBox="0 0 24 24">
<path d="M15.422 16.594l-1.406 1.406-6-6 6-6 1.406 1.406-4.594 4.594z"></path>
</symbol>
<symbol id="icon-keyboard_arrow_right" viewBox="0 0 24 24">
<path d="M8.578 16.594l4.594-4.594-4.594-4.594 1.406-1.406 6 6-6 6z"></path>
</symbol>
<symbol id="icon-keyboard_arrow_up" viewBox="0 0 24 24">
<path d="M7.406 15.422l-1.406-1.406 6-6 6 6-1.406 1.406-4.594-4.594z"></path>
</symbol>
<symbol id="icon-keyboard_hide" viewBox="0 0 24 24">
<path d="M12 23.016l-3.984-4.031h7.969zM18.984 8.016v-2.016h-1.969v2.016h1.969zM18.984 11.016v-2.016h-1.969v2.016h1.969zM15.984 8.016v-2.016h-1.969v2.016h1.969zM15.984 11.016v-2.016h-1.969v2.016h1.969zM15.984 15v-2.016h-7.969v2.016h7.969zM6.984 8.016v-2.016h-1.969v2.016h1.969zM6.984 11.016v-2.016h-1.969v2.016h1.969zM8.016 9v2.016h1.969v-2.016h-1.969zM8.016 6v2.016h1.969v-2.016h-1.969zM11.016 9v2.016h1.969v-2.016h-1.969zM11.016 6v2.016h1.969v-2.016h-1.969zM20.016 3q0.797 0 1.383 0.609t0.586 1.406v9.984q0 0.797-0.586 1.406t-1.383 0.609h-16.031q-0.797 0-1.383-0.609t-0.586-1.406v-9.984q0-0.797 0.586-1.406t1.383-0.609h16.031z"></path>
</symbol>
<symbol id="icon-color_lens" viewBox="0 0 24 24">
<path d="M17.484 12q0.609 0 1.055-0.422t0.445-1.078-0.445-1.078-1.055-0.422-1.055 0.422-0.445 1.078 0.445 1.078 1.055 0.422zM14.484 8.016q0.609 0 1.055-0.445t0.445-1.055-0.445-1.055-1.055-0.445-1.055 0.445-0.445 1.055 0.445 1.055 1.055 0.445zM9.516 8.016q0.609 0 1.055-0.445t0.445-1.055-0.445-1.055-1.055-0.445-1.055 0.445-0.445 1.055 0.445 1.055 1.055 0.445zM6.516 12q0.609 0 1.055-0.422t0.445-1.078-0.445-1.078-1.055-0.422-1.055 0.422-0.445 1.078 0.445 1.078 1.055 0.422zM12 3q3.703 0 6.352 2.344t2.648 5.672q0 2.063-1.477 3.516t-3.539 1.453h-1.734q-0.656 0-1.078 0.445t-0.422 1.055q0 0.516 0.375 0.984t0.375 1.031q0 0.656-0.422 1.078t-1.078 0.422q-3.75 0-6.375-2.625t-2.625-6.375 2.625-6.375 6.375-2.625z"></path>
</symbol>
<symbol id="icon-dehaze" viewBox="0 0 24 24">
<path d="M2.016 5.484h19.969v2.016h-19.969v-2.016zM2.016 10.5h19.969v2.016h-19.969v-2.016zM2.016 15.516h19.969v1.969h-19.969v-1.969z"></path>
</symbol>
<symbol id="icon-exposure_neg_1" viewBox="0 0 24 24">
<path d="M18.984 18h-1.969v-10.641l-3 1.031v-1.688l4.688-1.688h0.281v12.984zM3.984 11.016h8.016v1.969h-8.016v-1.969z"></path>
</symbol>
<symbol id="icon-exposure_neg_2" viewBox="0 0 24 24">
<path d="M2.016 11.016h7.969v1.969h-7.969v-1.969zM15.047 16.313h5.953v1.688h-8.625v-1.5l4.172-4.547q0.844-0.844 1.453-1.875 0.328-0.563 0.328-1.313 0-0.609-0.094-0.844-0.469-1.219-1.781-1.219-2.156 0-2.156 2.297h-2.156q0-1.688 1.125-2.813 1.172-1.172 3.188-1.172h0.094q2.766 0 3.703 2.063 0.234 0.516 0.234 1.453 0 0.656-0.188 1.172-0.328 0.891-0.516 1.172-0.797 1.266-1.875 2.344z"></path>
</symbol>
<symbol id="icon-exposure_plus_1" viewBox="0 0 24 24">
<path d="M20.016 18h-2.016v-10.641l-3 1.031v-1.688l4.688-1.688h0.328v12.984zM9.984 6.984v4.031h4.031v1.969h-4.031v4.031h-1.969v-4.031h-4.031v-1.969h4.031v-4.031h1.969z"></path>
</symbol>
<symbol id="icon-exposure_plus_2" viewBox="0 0 24 24">
<path d="M8.016 6.984v4.031h3.984v1.969h-3.984v4.031h-2.016v-4.031h-3.984v-1.969h3.984v-4.031h2.016zM16.031 16.313h5.953v1.688h-8.625v-1.5l4.172-4.547q0.844-0.844 1.453-1.875 0.375-0.609 0.375-1.313 0-0.75-0.516-1.453-0.469-0.609-1.406-0.609-0.984 0-1.641 0.656-0.516 0.516-0.516 1.641h-2.156q0-1.688 1.125-2.813 0.656-0.656 1.359-0.891 0.844-0.281 1.875-0.281h0.047q2.766 0 3.703 2.063 0.281 0.609 0.281 1.453 0 1.125-0.75 2.344-0.563 0.938-0.797 1.172-0.656 0.75-1.078 1.172z"></path>
</symbol>
<symbol id="icon-exposure_zero" viewBox="0 0 24 24">
<path d="M14.016 10.125q0-1.875-0.516-2.672-0.188-0.281-0.656-0.563-0.328-0.188-0.844-0.188t-0.844 0.188q-0.469 0.281-0.656 0.563-0.516 0.797-0.516 2.672v2.672q0 2.625 1.172 3.328 0.328 0.188 0.844 0.188 0.984 0 1.5-0.797 0.563-0.844 0.563-2.719v-2.672h-0.047zM7.875 10.453q0-5.438 4.125-5.438 3.047 0 3.844 2.906 0.328 1.219 0.328 2.531v2.063h-0.047q0 2.766-1.125 4.219-0.656 0.75-1.313 0.984-0.75 0.281-1.688 0.281t-1.688-0.281q-0.656-0.234-1.313-0.984-1.125-1.266-1.125-4.219v-2.063z"></path>
</symbol>
<symbol id="icon-view_compact" viewBox="0 0 24 24">
<path d="M3 5.016h18.984v6h-18.984v-6zM9.984 18.984v-6.984h12v6.984h-12zM3 18.984v-6.984h6v6.984h-6z"></path>
</symbol>
<symbol id="icon-directions_walk" viewBox="0 0 24 24">
<path d="M9.797 8.906l-2.813 14.109h2.109l1.828-8.016 2.063 2.016v6h2.016v-7.5l-2.109-2.016 0.609-3q2.156 2.484 5.484 2.484v-1.969q-2.906 0-4.266-2.438l-1.031-1.594q-0.703-0.984-1.688-0.984-0.141 0-0.398 0.047t-0.398 0.047l-5.203 2.203v4.688h2.016v-3.375l1.781-0.703zM13.5 5.484q-0.797 0-1.406-0.586t-0.609-1.383 0.609-1.406 1.406-0.609 1.406 0.609 0.609 1.406-0.609 1.383-1.406 0.586z"></path>
</symbol>
<symbol id="icon-local_printshop" viewBox="0 0 24 24">
<path d="M18 3v3.984h-12v-3.984h12zM18.984 12q0.422 0 0.727-0.281t0.305-0.703-0.305-0.727-0.727-0.305-0.703 0.305-0.281 0.727 0.281 0.703 0.703 0.281zM15.984 18.984v-4.969h-7.969v4.969h7.969zM18.984 8.016q1.219 0 2.109 0.891t0.891 2.109v6h-3.984v3.984h-12v-3.984h-3.984v-6q0-1.219 0.891-2.109t2.109-0.891h13.969z"></path>
</symbol>
<symbol id="icon-directions_run" viewBox="0 0 24 24">
<path d="M9.891 19.359l-6.984-1.359 0.375-2.016 4.922 0.984 1.594-8.109-1.828 0.703v3.422h-1.969v-4.688l5.203-2.203q0.141 0 0.398-0.047t0.398-0.047q0.984 0 1.688 0.984l0.984 1.594q1.359 2.391 4.313 2.391v2.016q-3.328 0-5.484-2.484l-0.609 3 2.109 1.969v7.5h-2.016v-6l-2.109-1.969zM13.5 5.484q-0.797 0-1.406-0.609t-0.609-1.406 0.609-1.383 1.406-0.586 1.383 0.586 0.586 1.383-0.586 1.406-1.383 0.609z"></path>
</symbol>
<symbol id="icon-apps" viewBox="0 0 24 24">
<path d="M15.984 20.016v-4.031h4.031v4.031h-4.031zM15.984 14.016v-4.031h4.031v4.031h-4.031zM9.984 8.016v-4.031h4.031v4.031h-4.031zM15.984 3.984h4.031v4.031h-4.031v-4.031zM9.984 14.016v-4.031h4.031v4.031h-4.031zM3.984 14.016v-4.031h4.031v4.031h-4.031zM3.984 20.016v-4.031h4.031v4.031h-4.031zM9.984 20.016v-4.031h4.031v4.031h-4.031zM3.984 8.016v-4.031h4.031v4.031h-4.031z"></path>
</symbol>
<symbol id="icon-arrow_back" viewBox="0 0 24 24">
<path d="M20.016 11.016v1.969h-12.188l5.578 5.625-1.406 1.406-8.016-8.016 8.016-8.016 1.406 1.406-5.578 5.625h12.188z"></path>
</symbol>
<symbol id="icon-arrow_drop_down" viewBox="0 0 24 24">
<path d="M6.984 9.984h10.031l-5.016 5.016z"></path>
</symbol>
<symbol id="icon-arrow_drop_up" viewBox="0 0 24 24">
<path d="M6.984 14.016l5.016-5.016 5.016 5.016h-10.031z"></path>
</symbol>
<symbol id="icon-arrow_forward" viewBox="0 0 24 24">
<path d="M12 3.984l8.016 8.016-8.016 8.016-1.406-1.406 5.578-5.625h-12.188v-1.969h12.188l-5.578-5.625z"></path>
</symbol>
<symbol id="icon-check1" viewBox="0 0 24 24">
<path d="M9 16.172l10.594-10.594 1.406 1.406-12 12-5.578-5.578 1.406-1.406z"></path>
</symbol>
<symbol id="icon-expand_less" viewBox="0 0 24 24">
<path d="M12 8.016l6 6-1.406 1.406-4.594-4.594-4.594 4.594-1.406-1.406z"></path>
</symbol>
<symbol id="icon-expand_more" viewBox="0 0 24 24">
<path d="M16.594 8.578l1.406 1.406-6 6-6-6 1.406-1.406 4.594 4.594z"></path>
</symbol>
<symbol id="icon-menu1" viewBox="0 0 24 24">
<path d="M3 6h18v2.016h-18v-2.016zM3 12.984v-1.969h18v1.969h-18zM3 18v-2.016h18v2.016h-18z"></path>
</symbol>
<symbol id="icon-keyboard_control" viewBox="0 0 24 24">
<path d="M12 9.984q0.797 0 1.406 0.609t0.609 1.406-0.609 1.406-1.406 0.609-1.406-0.609-0.609-1.406 0.609-1.406 1.406-0.609zM18 9.984q0.797 0 1.406 0.609t0.609 1.406-0.609 1.406-1.406 0.609-1.406-0.609-0.609-1.406 0.609-1.406 1.406-0.609zM6 9.984q0.797 0 1.406 0.609t0.609 1.406-0.609 1.406-1.406 0.609-1.406-0.609-0.609-1.406 0.609-1.406 1.406-0.609z"></path>
</symbol>
<symbol id="icon-more_vert" viewBox="0 0 24 24">
<path d="M12 15.984q0.797 0 1.406 0.609t0.609 1.406-0.609 1.406-1.406 0.609-1.406-0.609-0.609-1.406 0.609-1.406 1.406-0.609zM12 9.984q0.797 0 1.406 0.609t0.609 1.406-0.609 1.406-1.406 0.609-1.406-0.609-0.609-1.406 0.609-1.406 1.406-0.609zM12 8.016q-0.797 0-1.406-0.609t-0.609-1.406 0.609-1.406 1.406-0.609 1.406 0.609 0.609 1.406-0.609 1.406-1.406 0.609z"></path>
</symbol>
<symbol id="icon-refresh" viewBox="0 0 24 24">
<path d="M17.672 6.328l2.344-2.344v7.031h-7.031l3.234-3.234q-1.781-1.781-4.219-1.781-2.484 0-4.242 1.758t-1.758 4.242 1.758 4.242 4.242 1.758q1.734 0 3.398-1.172t2.273-2.813h2.063q-0.656 2.625-2.813 4.313t-4.922 1.688q-3.281 0-5.625-2.344t-2.344-5.672 2.344-5.672 5.625-2.344q1.406 0 3.070 0.68t2.602 1.664z"></path>
</symbol>
<symbol id="icon-unfold_less" viewBox="0 0 24 24">
<path d="M16.594 5.391l-4.594 4.594-4.594-4.594 1.406-1.406 3.188 3.188 3.188-3.188zM7.406 18.609l4.594-4.594 4.594 4.594-1.406 1.406-3.188-3.188-3.188 3.188z"></path>
</symbol>
<symbol id="icon-unfold_more" viewBox="0 0 24 24">
<path d="M12 18.188l3.188-3.188 1.406 1.406-4.594 4.594-4.594-4.594 1.406-1.406zM12 5.813l-3.188 3.188-1.406-1.406 4.594-4.594 4.594 4.594-1.406 1.406z"></path>
</symbol>
<symbol id="icon-arrow_upward" viewBox="0 0 24 24">
<path d="M3.984 12l8.016-8.016 8.016 8.016-1.453 1.406-5.578-5.578v12.188h-1.969v-12.188l-5.625 5.578z"></path>
</symbol>
<symbol id="icon-arrow_downward" viewBox="0 0 24 24">
<path d="M20.016 12l-8.016 8.016-8.016-8.016 1.453-1.406 5.578 5.578v-12.188h1.969v12.188l5.625-5.578z"></path>
</symbol>
<symbol id="icon-arrow_left" viewBox="0 0 24 24">
<path d="M14.016 6.984v10.031l-5.016-5.016z"></path>
</symbol>
<symbol id="icon-arrow_right" viewBox="0 0 24 24">
<path d="M9.984 17.016v-10.031l5.016 5.016z"></path>
</symbol>
<symbol id="icon-event_available" viewBox="0 0 24 24">
<path d="M18.984 18.984v-10.969h-13.969v10.969h13.969zM18.984 3q0.797 0 1.406 0.609t0.609 1.406v13.969q0 0.797-0.609 1.406t-1.406 0.609h-13.969q-0.844 0-1.43-0.586t-0.586-1.43v-13.969q0-0.797 0.586-1.406t1.43-0.609h0.984v-2.016h2.016v2.016h7.969v-2.016h2.016v2.016h0.984zM16.547 11.063l-5.953 5.953-3.188-3.188 1.078-1.078 2.109 2.109 4.875-4.875z"></path>
</symbol>
<symbol id="icon-event_busy" viewBox="0 0 24 24">
<path d="M18.984 18.984v-10.969h-13.969v10.969h13.969zM18.984 3q0.797 0 1.406 0.609t0.609 1.406v13.969q0 0.797-0.609 1.406t-1.406 0.609h-13.969q-0.844 0-1.43-0.586t-0.586-1.43v-13.969q0-0.797 0.586-1.406t1.43-0.609h0.984v-2.016h2.016v2.016h7.969v-2.016h2.016v2.016h0.984zM9.328 17.016l-1.078-1.078 2.438-2.438-2.438-2.438 1.078-1.078 2.438 2.438 2.438-2.438 1.031 1.078-2.438 2.438 2.438 2.438-1.031 1.078-2.438-2.438z"></path>
</symbol>
<symbol id="icon-event_note" viewBox="0 0 24 24">
<path d="M14.016 14.016v1.969h-7.031v-1.969h7.031zM18.984 18.984v-10.969h-13.969v10.969h13.969zM18.984 3q0.797 0 1.406 0.609t0.609 1.406v13.969q0 0.797-0.609 1.406t-1.406 0.609h-13.969q-0.844 0-1.43-0.586t-0.586-1.43v-13.969q0-0.797 0.586-1.406t1.43-0.609h0.984v-2.016h2.016v2.016h7.969v-2.016h2.016v2.016h0.984zM17.016 9.984v2.016h-10.031v-2.016h10.031z"></path>
</symbol>
<symbol id="icon-priority_high" viewBox="0 0 24 24">
<path d="M9.984 3h4.031v12h-4.031v-12zM9.984 18.984q0-0.844 0.586-1.406t1.43-0.563 1.43 0.563 0.586 1.406-0.586 1.43-1.43 0.586-1.43-0.586-0.586-1.43z"></path>
</symbol>
<symbol id="icon-cake" viewBox="0 0 24 24">
<path d="M18 9q1.219 0 2.109 0.891t0.891 2.109v1.547q0 0.797-0.586 1.383t-1.383 0.586-1.359-0.563l-2.156-2.156-2.156 2.156q-0.563 0.563-1.383 0.563t-1.383-0.563l-2.109-2.156-2.156 2.156q-0.563 0.563-1.359 0.563t-1.383-0.586-0.586-1.383v-1.547q0-1.219 0.891-2.109t2.109-0.891h5.016v-2.016h1.969v2.016h5.016zM16.594 15.984q1.031 1.031 2.438 1.031 1.031 0 1.969-0.609v4.594q0 0.422-0.281 0.703t-0.703 0.281h-16.031q-0.422 0-0.703-0.281t-0.281-0.703v-4.594q0.891 0.609 1.969 0.609 1.406 0 2.438-1.031l1.078-1.078 1.078 1.078q0.984 0.984 2.438 0.984t2.438-0.984l1.078-1.078zM12 6q-0.797 0-1.406-0.609t-0.609-1.406q0-0.516 0.328-1.031l1.688-2.953 1.688 2.953q0.328 0.516 0.328 1.031 0 0.844-0.586 1.43t-1.43 0.586z"></path>
</symbol>
<symbol id="icon-notifications" viewBox="0 0 24 24">
<path d="M18 15.984l2.016 2.016v0.984h-16.031v-0.984l2.016-2.016v-4.969q0-2.344 1.195-4.078t3.305-2.25v-0.703q0-0.609 0.422-1.055t1.078-0.445 1.078 0.445 0.422 1.055v0.703q2.109 0.516 3.305 2.25t1.195 4.078v4.969zM12 21.984q-0.844 0-1.43-0.563t-0.586-1.406h4.031q0 0.797-0.609 1.383t-1.406 0.586z"></path>
</symbol>
<symbol id="icon-notifications_none" viewBox="0 0 24 24">
<path d="M15.984 17.016v-6q0-1.922-1.078-3.211t-2.906-1.289-2.906 1.289-1.078 3.211v6h7.969zM18 15.984l2.016 2.016v0.984h-16.031v-0.984l2.016-2.016v-4.969q0-2.344 1.195-4.078t3.305-2.25v-0.703q0-0.609 0.422-1.055t1.078-0.445 1.078 0.445 0.422 1.055v0.703q2.109 0.516 3.305 2.25t1.195 4.078v4.969zM12 21.984q-0.797 0-1.406-0.586t-0.609-1.383h4.031q0 0.797-0.609 1.383t-1.406 0.586z"></path>
</symbol>
<symbol id="icon-notifications_off" viewBox="0 0 24 24">
<path d="M18 14.672l-8.953-9.422q0.141-0.047 0.375-0.164l0.328-0.164h0.047l0.281-0.141q0.047 0 0.188-0.047t0.234-0.047v-0.703q0-0.609 0.422-1.055t1.078-0.445 1.078 0.445 0.422 1.055v0.703q2.109 0.516 3.305 2.25t1.195 4.078v3.656zM12 21.984q-0.844 0-1.43-0.563t-0.586-1.406h4.031q0 0.844-0.586 1.406t-1.43 0.563zM7.828 6.141q1.125 1.172 5.883 6.047t7.289 7.547l-1.266 1.266-2.016-2.016h-13.734v-0.984l2.016-2.016v-5.016q0-1.922 0.797-3.422l-2.813-2.766 1.266-1.313z"></path>
</symbol>
<symbol id="icon-notifications_on" viewBox="0 0 24 24">
<path d="M12 21.984q-0.844 0-1.43-0.586t-0.586-1.383h3.984q0 0.844-0.563 1.406t-1.406 0.563zM18 11.016v4.969l2.016 2.016v0.984h-16.031v-0.984l2.016-2.016v-4.969q0-2.344 1.195-4.078t3.305-2.25v-0.703q0-0.609 0.422-1.055t1.078-0.445 1.078 0.445 0.422 1.055v0.703q2.109 0.516 3.305 2.25t1.195 4.078zM19.969 10.5q-0.094-1.688-1.125-3.563t-2.391-2.859l1.406-1.406q3.891 3 4.125 7.828h-2.016zM7.594 4.078q-1.359 0.984-2.414 2.859t-1.148 3.563h-2.016q0.234-4.828 4.125-7.828z"></path>
</symbol>
<symbol id="icon-person" viewBox="0 0 24 24">
<path d="M12 14.016q2.531 0 5.273 1.102t2.742 2.883v2.016h-16.031v-2.016q0-1.781 2.742-2.883t5.273-1.102zM12 12q-1.641 0-2.813-1.172t-1.172-2.813 1.172-2.836 2.813-1.195 2.813 1.195 1.172 2.836-1.172 2.813-2.813 1.172z"></path>
</symbol>
<symbol id="icon-share" viewBox="0 0 24 24">
<path d="M18 16.078q1.219 0 2.063 0.867t0.844 2.039q0 1.219-0.867 2.086t-2.039 0.867-2.039-0.867-0.867-2.086q0-0.469 0.047-0.656l-7.078-4.125q-0.891 0.797-2.063 0.797-1.219 0-2.109-0.891t-0.891-2.109 0.891-2.109 2.109-0.891q1.172 0 2.063 0.797l7.031-4.078q-0.094-0.469-0.094-0.703 0-1.219 0.891-2.109t2.109-0.891 2.109 0.891 0.891 2.109-0.891 2.109-2.109 0.891q-1.125 0-2.063-0.844l-7.031 4.125q0.094 0.469 0.094 0.703t-0.094 0.703l7.125 4.125q0.844-0.75 1.969-0.75z"></path>
</symbol>
<symbol id="icon-check_box" viewBox="0 0 24 24">
<path d="M9.984 17.016l9-9-1.406-1.453-7.594 7.594-3.563-3.563-1.406 1.406zM18.984 3q0.844 0 1.43 0.586t0.586 1.43v13.969q0 0.844-0.586 1.43t-1.43 0.586h-13.969q-0.844 0-1.43-0.586t-0.586-1.43v-13.969q0-0.844 0.586-1.43t1.43-0.586h13.969z"></path>
</symbol>
<symbol id="icon-check_box_outline_blank" viewBox="0 0 24 24">
<path d="M18.984 3q0.797 0 1.406 0.609t0.609 1.406v13.969q0 0.797-0.609 1.406t-1.406 0.609h-13.969q-0.797 0-1.406-0.609t-0.609-1.406v-13.969q0-0.797 0.609-1.406t1.406-0.609h13.969zM18.984 5.016h-13.969v13.969h13.969v-13.969z"></path>
</symbol>
<symbol id="icon-accessibility" viewBox="0 0 24 24">
<path d="M21 9h-6v12.984h-2.016v-6h-1.969v6h-2.016v-12.984h-6v-2.016h18v2.016zM12 2.016q0.797 0 1.406 0.586t0.609 1.383-0.609 1.406-1.406 0.609-1.406-0.609-0.609-1.406 0.609-1.383 1.406-0.586z"></path>
</symbol>
<symbol id="icon-account_box" viewBox="0 0 24 24">
<path d="M6 17.016v0.984h12v-0.984q0-1.359-2.063-2.227t-3.938-0.867-3.938 0.867-2.063 2.227zM15 9q0-1.219-0.891-2.109t-2.109-0.891-2.109 0.891-0.891 2.109 0.891 2.109 2.109 0.891 2.109-0.891 0.891-2.109zM3 5.016q0-0.844 0.586-1.43t1.43-0.586h13.969q0.797 0 1.406 0.609t0.609 1.406v13.969q0 0.797-0.609 1.406t-1.406 0.609h-13.969q-0.844 0-1.43-0.586t-0.586-1.43v-13.969z"></path>
</symbol>
<symbol id="icon-account_circle" viewBox="0 0 24 24">
<path d="M12 19.219q1.594 0 3.352-0.938t2.648-2.297q-0.047-1.313-2.109-2.203t-3.891-0.891-3.891 0.867-2.109 2.227q0.891 1.359 2.648 2.297t3.352 0.938zM12 5.016q-1.219 0-2.109 0.891t-0.891 2.109 0.891 2.109 2.109 0.891 2.109-0.891 0.891-2.109-0.891-2.109-2.109-0.891zM12 2.016q4.125 0 7.055 2.93t2.93 7.055-2.93 7.055-7.055 2.93-7.055-2.93-2.93-7.055 2.93-7.055 7.055-2.93z"></path>
</symbol>
<symbol id="icon-alarm_off" viewBox="0 0 24 24">
<path d="M8.016 3.281l-0.844 0.703-1.453-1.406 0.891-0.703zM16.453 18.375l-9.844-9.844q-1.594 1.969-1.594 4.453 0 2.906 2.039 4.969t4.945 2.063q2.438 0 4.453-1.641zM2.906 2.297q3.563 3.563 10.148 10.125t8.32 8.297l-1.266 1.266-2.203-2.203q-2.578 2.203-5.906 2.203-3.75 0-6.375-2.648t-2.625-6.352q0-1.359 0.656-3.094t1.547-2.766l-0.797-0.797-1.125 0.938-1.406-1.453 1.125-0.891-1.359-1.359zM21.984 5.719l-1.266 1.547-4.594-3.891 1.266-1.5zM12 6q-1.266 0-2.391 0.422l-1.547-1.5q1.969-0.938 3.938-0.938 3.75 0 6.375 2.648t2.625 6.352q0 2.063-0.891 3.938l-1.547-1.5q0.422-1.125 0.422-2.438 0-2.906-2.039-4.945t-4.945-2.039z"></path>
</symbol>
<symbol id="icon-alarm_on" viewBox="0 0 24 24">
<path d="M10.547 14.531l4.922-4.969 1.078 1.078-6 6-3.188-3.188 1.031-1.031zM12 20.016q2.906 0 4.945-2.063t2.039-4.969-2.039-4.945-4.945-2.039-4.945 2.039-2.039 4.945 2.039 4.969 4.945 2.063zM12 3.984q3.75 0 6.375 2.648t2.625 6.352-2.625 6.352-6.375 2.648-6.375-2.648-2.625-6.352 2.625-6.352 6.375-2.648zM7.875 3.375l-4.594 3.844-1.266-1.5 4.594-3.844zM21.984 5.719l-1.266 1.547-4.594-3.891 1.266-1.5z"></path>
</symbol>
<symbol id="icon-autorenew" viewBox="0 0 24 24">
<path d="M18.75 7.734q1.266 1.922 1.266 4.266 0 3.281-2.367 5.648t-5.648 2.367v3l-3.984-4.031 3.984-3.984v3q2.484 0 4.242-1.758t1.758-4.242q0-1.406-0.703-2.813zM12 6q-2.484 0-4.242 1.758t-1.758 4.242q0 1.5 0.703 2.813l-1.453 1.453q-1.266-1.922-1.266-4.266 0-3.281 2.367-5.648t5.648-2.367v-3l3.984 4.031-3.984 3.984v-3z"></path>
</symbol>
<symbol id="icon-dashboard" viewBox="0 0 24 24">
<path d="M12.984 3h8.016v6h-8.016v-6zM12.984 21v-9.984h8.016v9.984h-8.016zM3 21v-6h8.016v6h-8.016zM3 12.984v-9.984h8.016v9.984h-8.016z"></path>
</symbol>
<symbol id="icon-delete" viewBox="0 0 24 24">
<path d="M18.984 3.984v2.016h-13.969v-2.016h3.469l1.031-0.984h4.969l1.031 0.984h3.469zM6 18.984v-12h12v12q0 0.797-0.609 1.406t-1.406 0.609h-7.969q-0.797 0-1.406-0.609t-0.609-1.406z"></path>
</symbol>
<symbol id="icon-done" viewBox="0 0 24 24">
<path d="M9 16.219l10.594-10.641 1.406 1.406-12 12-5.578-5.578 1.359-1.406z"></path>
</symbol>
<symbol id="icon-done_all" viewBox="0 0 24 24">
<path d="M0.422 13.406l1.406-1.406 5.578 5.578-1.406 1.406zM22.219 5.578l1.453 1.406-12 12-5.625-5.578 1.453-1.406 4.172 4.172zM18 6.984l-6.328 6.375-1.406-1.406 6.328-6.375z"></path>
</symbol>
<symbol id="icon-exit_to_app" viewBox="0 0 24 24">
<path d="M18.984 3q0.797 0 1.406 0.609t0.609 1.406v13.969q0 0.797-0.609 1.406t-1.406 0.609h-13.969q-0.844 0-1.43-0.586t-0.586-1.43v-3.984h2.016v3.984h13.969v-13.969h-13.969v3.984h-2.016v-3.984q0-0.844 0.586-1.43t1.43-0.586h13.969zM10.078 15.609l2.578-2.625h-9.656v-1.969h9.656l-2.578-2.625 1.406-1.406 5.016 5.016-5.016 5.016z"></path>
</symbol>
<symbol id="icon-history" viewBox="0 0 24 24">
<path d="M12 8.016h1.5v4.219l3.516 2.109-0.75 1.219-4.266-2.578v-4.969zM12.984 3q3.703 0 6.352 2.625t2.648 6.375-2.648 6.375-6.352 2.625q-1.547 0-3.398-0.773t-2.93-1.852l1.406-1.453q2.063 2.063 4.922 2.063 2.906 0 4.969-2.039t2.063-4.945-2.063-4.945-4.969-2.039-4.945 2.039-2.039 4.945h3l-4.031 4.031-0.094-0.141-3.891-3.891h3q0-3.75 2.648-6.375t6.352-2.625z"></path>
</symbol>
<symbol id="icon-info1" viewBox="0 0 24 24">
<path d="M12.984 9v-2.016h-1.969v2.016h1.969zM12.984 17.016v-6h-1.969v6h1.969zM12 2.016q4.125 0 7.055 2.93t2.93 7.055-2.93 7.055-7.055 2.93-7.055-2.93-2.93-7.055 2.93-7.055 7.055-2.93z"></path>
</symbol>
<symbol id="icon-info_outline" viewBox="0 0 24 24">
<path d="M11.016 9v-2.016h1.969v2.016h-1.969zM12 20.016q3.281 0 5.648-2.367t2.367-5.648-2.367-5.648-5.648-2.367-5.648 2.367-2.367 5.648 2.367 5.648 5.648 2.367zM12 2.016q4.125 0 7.055 2.93t2.93 7.055-2.93 7.055-7.055 2.93-7.055-2.93-2.93-7.055 2.93-7.055 7.055-2.93zM11.016 17.016v-6h1.969v6h-1.969z"></path>
</symbol>
<symbol id="icon-perm_contact_calendar" viewBox="0 0 24 24">
<path d="M18 18v-0.984q0-1.359-2.063-2.227t-3.938-0.867-3.938 0.867-2.063 2.227v0.984h12zM12 6q-1.219 0-2.109 0.891t-0.891 2.109 0.891 2.109 2.109 0.891 2.109-0.891 0.891-2.109-0.891-2.109-2.109-0.891zM18.984 3q0.797 0 1.406 0.609t0.609 1.406v13.969q0 0.797-0.609 1.406t-1.406 0.609h-13.969q-0.844 0-1.43-0.586t-0.586-1.43v-13.969q0-0.844 0.586-1.43t1.43-0.586h0.984v-2.016h2.016v2.016h7.969v-2.016h2.016v2.016h0.984z"></path>
</symbol>
<symbol id="icon-search" viewBox="0 0 24 24">
<path d="M9.516 14.016q1.875 0 3.188-1.313t1.313-3.188-1.313-3.188-3.188-1.313-3.188 1.313-1.313 3.188 1.313 3.188 3.188 1.313zM15.516 14.016l4.969 4.969-1.5 1.5-4.969-4.969v-0.797l-0.281-0.281q-1.781 1.547-4.219 1.547-2.719 0-4.617-1.875t-1.898-4.594 1.898-4.617 4.617-1.898 4.594 1.898 1.875 4.617q0 0.984-0.469 2.227t-1.078 1.992l0.281 0.281h0.797z"></path>
</symbol>
<symbol id="icon-settings" viewBox="0 0 24 24">
<path d="M12 15.516q1.453 0 2.484-1.031t1.031-2.484-1.031-2.484-2.484-1.031-2.484 1.031-1.031 2.484 1.031 2.484 2.484 1.031zM19.453 12.984l2.109 1.641q0.328 0.234 0.094 0.656l-2.016 3.469q-0.188 0.328-0.609 0.188l-2.484-0.984q-0.984 0.703-1.688 0.984l-0.375 2.625q-0.094 0.422-0.469 0.422h-4.031q-0.375 0-0.469-0.422l-0.375-2.625q-0.891-0.375-1.688-0.984l-2.484 0.984q-0.422 0.141-0.609-0.188l-2.016-3.469q-0.234-0.422 0.094-0.656l2.109-1.641q-0.047-0.328-0.047-0.984t0.047-0.984l-2.109-1.641q-0.328-0.234-0.094-0.656l2.016-3.469q0.188-0.328 0.609-0.188l2.484 0.984q0.984-0.703 1.688-0.984l0.375-2.625q0.094-0.422 0.469-0.422h4.031q0.375 0 0.469 0.422l0.375 2.625q0.891 0.375 1.688 0.984l2.484-0.984q0.422-0.141 0.609 0.188l2.016 3.469q0.234 0.422-0.094 0.656l-2.109 1.641q0.047 0.328 0.047 0.984t-0.047 0.984z"></path>
</symbol>
<symbol id="icon-supervisor_account" viewBox="0 0 24 24">
<path d="M9 12.984q1.031 0 2.391 0.281-2.391 1.313-2.391 3.469v2.25h-6.984v-2.484q0-1.078 1.289-1.922t2.836-1.219 2.859-0.375zM16.5 14.016q1.734 0 3.609 0.75t1.875 1.969v2.25h-10.969v-2.25q0-1.219 1.875-1.969t3.609-0.75zM9 11.016q-1.219 0-2.109-0.891t-0.891-2.109 0.891-2.109 2.109-0.891 2.109 0.891 0.891 2.109-0.891 2.109-2.109 0.891zM16.5 12q-1.031 0-1.758-0.727t-0.727-1.758 0.727-1.781 1.758-0.75 1.758 0.75 0.727 1.781-0.727 1.758-1.758 0.727z"></path>
</symbol>
<symbol id="icon-today" viewBox="0 0 24 24">
<path d="M6.984 9.984h5.016v5.016h-5.016v-5.016zM18.984 18.984v-10.969h-13.969v10.969h13.969zM18.984 3q0.797 0 1.406 0.609t0.609 1.406v13.969q0 0.797-0.609 1.406t-1.406 0.609h-13.969q-0.844 0-1.43-0.586t-0.586-1.43v-13.969q0-0.797 0.586-1.406t1.43-0.609h0.984v-2.016h2.016v2.016h7.969v-2.016h2.016v2.016h0.984z"></path>
</symbol>
<symbol id="icon-date_range" viewBox="0 0 24 24">
<path d="M18.984 20.016v-11.016h-13.969v11.016h13.969zM18.984 3.984q0.797 0 1.406 0.609t0.609 1.406v14.016q0 0.797-0.609 1.383t-1.406 0.586h-13.969q-0.844 0-1.43-0.563t-0.586-1.406v-14.016q0-0.797 0.586-1.406t1.43-0.609h0.984v-1.969h2.016v1.969h7.969v-1.969h2.016v1.969h0.984zM17.016 11.016v1.969h-2.016v-1.969h2.016zM12.984 11.016v1.969h-1.969v-1.969h1.969zM9 11.016v1.969h-2.016v-1.969h2.016z"></path>
</symbol>
<symbol id="icon-update" viewBox="0 0 24 24">
<path d="M12.516 8.016v4.219l3.469 2.109-0.703 1.219-4.266-2.578v-4.969h1.5zM21 10.125h-6.797l2.766-2.813q-2.063-2.063-4.945-2.086t-4.945 1.992q-0.844 0.844-1.453 2.273t-0.609 2.602 0.609 2.602 1.453 2.273 2.297 1.453 2.625 0.609 2.648-0.609 2.32-1.453q2.016-2.016 2.016-4.875h2.016q0 3.703-2.625 6.281-2.625 2.625-6.375 2.625t-6.375-2.625q-2.625-2.578-2.625-6.258t2.625-6.305q1.078-1.078 2.93-1.852t3.398-0.773 3.398 0.773 2.93 1.852l2.719-2.813v7.125z"></path>
</symbol>
<symbol id="icon-check_circle_outline" viewBox="0 0 24 24">
<path d="M12 20.016q3.281 0 5.648-2.367t2.367-5.648-2.367-5.648-5.648-2.367-5.648 2.367-2.367 5.648 2.367 5.648 5.648 2.367zM12 2.016q4.125 0 7.055 2.93t2.93 7.055-2.93 7.055-7.055 2.93-7.055-2.93-2.93-7.055 2.93-7.055 7.055-2.93zM16.594 7.594l1.406 1.406-8.016 8.016-4.969-5.016 1.406-1.406 3.563 3.563z"></path>
</symbol>
<symbol id="icon-delete_outline" viewBox="0 0 24 24">
<path d="M15.516 3.984h3.469v2.016h-13.969v-2.016h3.469l1.031-0.984h4.969zM8.016 9v9.984h7.969v-9.984h-7.969zM6 18.984v-12h12v12q0 0.797-0.609 1.406t-1.406 0.609h-7.969q-0.797 0-1.406-0.609t-0.609-1.406z"></path>
</symbol>
<symbol id="icon-minimize" viewBox="0 0 24 24">
<path d="M6 18.984h12v2.016h-12v-2.016z"></path>
</symbol>
<symbol id="icon-calendar_today" viewBox="0 0 24 24">
<path d="M20.016 21v-12.984h-16.031v12.984h16.031zM20.016 3q0.797 0 1.383 0.609t0.586 1.406v15.984q0 0.797-0.586 1.406t-1.383 0.609h-16.031q-0.797 0-1.383-0.609t-0.586-1.406v-15.984q0-0.797 0.586-1.406t1.383-0.609h1.031v-2.016h1.969v2.016h10.031v-2.016h1.969v2.016h1.031z"></path>
</symbol>
<symbol id="icon-supervised_user_circle" viewBox="0 0 24 24">
<path d="M12 20.016q2.484 0 4.523-1.43t2.93-3.68q-1.406-1.125-3.844-1.125-1.359 0-2.883 0.586t-1.523 1.523v4.078q0.281 0.047 0.797 0.047zM9.609 15.891q0-1.641 1.875-2.672-1.172-0.234-1.875-0.234-1.266 0-2.859 0.445t-2.297 1.242q0.656 1.781 2.016 3.094t3.141 1.875v-3.75zM9.609 6.75q-0.984 0-1.688 0.703t-0.703 1.688 0.703 1.664 1.688 0.68 1.664-0.68 0.68-1.664-0.68-1.688-1.664-0.703zM15.609 8.344q-0.797 0-1.359 0.563t-0.563 1.359 0.563 1.359 1.359 0.563 1.359-0.563 0.563-1.359-0.563-1.359-1.359-0.563zM12 2.016q4.125 0 7.055 2.93t2.93 7.055-2.93 7.055-7.055 2.93q-4.172 0-7.102-2.93t-2.93-7.055 2.93-7.055 7.102-2.93z"></path>
</symbol>
<symbol id="icon-filter_list_alt" viewBox="0 0 24 24">
<path d="M4.266 5.672q-0.281-0.328-0.281-0.656 0-0.422 0.305-0.727t0.727-0.305h13.969q0.422 0 0.727 0.305t0.305 0.727q0.047 0.281-0.234 0.609l-5.766 7.359v6q0 0.422-0.281 0.727t-0.703 0.305h-2.016q-0.422 0-0.727-0.305t-0.305-0.727v-6q-5.625-7.172-5.719-7.313z"></path>
</symbol>
<symbol id="icon-logout" viewBox="0 0 24 24">
<path d="M3.984 5.016v13.969h8.016v2.016h-8.016q-0.797 0-1.383-0.609t-0.586-1.406v-13.969q0-0.797 0.586-1.406t1.383-0.609h8.016v2.016h-8.016zM17.016 6.984l4.969 5.016-4.969 5.016-1.406-1.453 2.578-2.578h-10.172v-1.969h10.172l-2.578-2.625z"></path>
</symbol>
<symbol id="icon-waterfall_chart" viewBox="0 0 24 24">
<path d="M6.984 9.984h3v4.031h-3v-4.031zM9.984 5.016h3v3.984h-3v-3.984zM14.016 3.984h3v3h-3v-3zM3 12.984h3v7.031h-3v-7.031zM18 3.984h3v16.031h-3v-16.031z"></path>
</symbol>
<symbol id="icon-bolt" viewBox="0 0 24 24">
<path d="M11.016 21h-1.031l1.031-6.984h-3.516q-0.75 0-0.375-0.656 0.141-0.234 0.047-0.141 2.391-4.172 5.813-10.219h1.031l-1.031 6.984h3.516q0.656 0 0.422 0.656z"></path>
</symbol>
<symbol id="icon-post_add" viewBox="0 0 24 24">
<path d="M6.984 15h8.016v2.016h-8.016v-2.016zM6.984 12h8.016v2.016h-8.016v-2.016zM6.984 9h8.016v2.016h-8.016v-2.016zM18.984 2.016v3h3v1.969h-3v3h-1.969v-3h-3v-1.969h3v-3h1.969zM17.016 19.219v-7.219h1.969v6.984q0 0.797-0.586 1.406t-1.383 0.609h-12q-0.797 0-1.406-0.609t-0.609-1.406v-12q0-0.797 0.609-1.383t1.406-0.586h6.984v1.969h-6.984v12.234h12z"></path>
</symbol>
<symbol id="icon-sports_tennis" viewBox="0 0 24 24">
<path d="M18 15q1.641 0 2.813 1.172t1.172 2.813-1.172 2.836-2.813 1.195-2.813-1.172-1.172-2.859q0-1.641 1.172-2.813t2.813-1.172zM18 17.016q-0.844 0-1.406 0.563-0.609 0.609-0.609 1.406t0.609 1.406 1.406 0.609q0.844 0 1.406-0.563 0.609-0.609 0.609-1.43t-0.609-1.43q-0.563-0.563-1.406-0.563zM10.313 11.672q1.172 1.172 3.164 0.867t3.586-1.898 1.898-3.586-0.867-3.164-3.141-0.844-3.563 1.922-1.922 3.563 0.844 3.141zM19.5 2.484q1.734 1.781 1.453 4.57t-2.484 4.992q-1.172 1.172-2.695 1.852t-2.789 0.68h-1.523t-0.797 0.023-0.867 0.117-0.773 0.234-0.82 0.398-0.703 0.586l-4.219 4.219-1.453-1.406 4.266-4.219q0.328-0.328 0.586-0.703t0.398-0.82 0.234-0.797 0.117-0.891 0.023-0.797v-1.523q0-1.219 0.68-2.742t1.852-2.695q2.203-2.203 4.992-2.531t4.523 1.453z"></path>
</symbol>
<symbol id="icon-flip_camera_android" viewBox="0 0 24 24">
<path d="M15.984 14.016h6v6h-1.969v-2.016q-3 3.984-8.016 3.984-3.609 0-6.352-2.273t-3.445-5.695h2.063q0.656 2.578 2.813 4.289t4.922 1.711q2.156 0 4.008-1.102t2.883-2.93h-2.906v-1.969zM8.016 9.984h-6v-6h1.969v2.016q3-3.984 8.016-3.984 3.609 0 6.352 2.273t3.445 5.695h-2.063q-0.656-2.578-2.813-4.289t-4.922-1.711q-2.156 0-4.008 1.102t-2.883 2.93h2.906v1.969zM9 12q0-1.219 0.891-2.109t2.109-0.891 2.109 0.891 0.891 2.109-0.891 2.109-2.109 0.891-2.109-0.891-0.891-2.109z"></path>
</symbol>
<symbol id="icon-volunteer_activism" viewBox="0 0 24 24">
<path d="M20.016 17.016q0.844 0 1.43 0.586t0.586 1.383l-8.016 3-7.031-1.969v-9h1.969l7.266 2.672q0.797 0.328 0.797 1.125 0 0.469-0.352 0.82t-0.867 0.352h-2.813l-1.734-0.656-0.328 0.938 2.063 0.75h7.031zM15.984 3.234q1.078-1.219 2.719-1.219 1.359 0 2.32 0.961t0.961 2.32q0 1.031-0.984 2.461t-1.969 2.391-3.047 2.836q-2.063-1.875-3.047-2.836t-1.969-2.391-0.984-2.461q0-1.359 0.984-2.32t2.344-0.961q1.594 0 2.672 1.219zM0.984 11.016h4.031v10.969h-4.031v-10.969z"></path>
</symbol>
<symbol id="icon-casino" viewBox="0 0 24 24">
<path d="M16.5 9q0.656 0 1.078-0.422t0.422-1.078-0.422-1.078-1.078-0.422-1.078 0.422-0.422 1.078 0.422 1.078 1.078 0.422zM16.5 18q0.656 0 1.078-0.422t0.422-1.078-0.422-1.078-1.078-0.422-1.078 0.422-0.422 1.078 0.422 1.078 1.078 0.422zM12 13.5q0.656 0 1.078-0.422t0.422-1.078-0.422-1.078-1.078-0.422-1.078 0.422-0.422 1.078 0.422 1.078 1.078 0.422zM7.5 9q0.656 0 1.078-0.422t0.422-1.078-0.422-1.078-1.078-0.422-1.078 0.422-0.422 1.078 0.422 1.078 1.078 0.422zM7.5 18q0.656 0 1.078-0.422t0.422-1.078-0.422-1.078-1.078-0.422-1.078 0.422-0.422 1.078 0.422 1.078 1.078 0.422zM18.984 3q0.797 0 1.406 0.609t0.609 1.406v13.969q0 0.797-0.609 1.406t-1.406 0.609h-13.969q-0.797 0-1.406-0.609t-0.609-1.406v-13.969q0-0.797 0.609-1.406t1.406-0.609h13.969z"></path>
</symbol>
<symbol id="icon-fitness_center" viewBox="0 0 24 24">
<path d="M20.578 14.859l1.406 1.453-2.109 2.109 1.406 1.453-1.406 1.406-1.453-1.406-2.109 2.109-1.453-1.406-1.406 1.406-1.453-1.406 3.563-3.563-8.578-8.578-3.563 3.563-1.406-1.453 1.406-1.406-1.406-1.453 2.109-2.109-1.406-1.453 1.406-1.406 1.453 1.406 2.109-2.109 1.453 1.406 1.406-1.406 1.453 1.406-3.563 3.563 8.578 8.578 3.563-3.563 1.406 1.453z"></path>
</symbol>
<symbol id="icon-auto_awesome" viewBox="0 0 24 24">
<path d="M18.984 9l1.266-2.766 2.766-1.219-2.766-1.266-1.266-2.766-1.219 2.766-2.766 1.266 2.766 1.219zM11.484 9.516l-2.484-5.531-2.484 5.531-5.531 2.484 5.531 2.484 2.484 5.531 2.484-5.531 5.531-2.484zM18.984 15l-1.219 2.766-2.766 1.219 2.766 1.266 1.219 2.766 1.266-2.766 2.766-1.266-2.766-1.219z"></path>
</symbol>
<symbol id="icon-auto_fix_high" viewBox="0 0 24 24">
<path d="M7.5 5.578l2.484 1.406-1.406-2.484 1.406-2.484-2.484 1.406-2.484-1.406 1.406 2.484-1.406 2.484zM19.5 15.422l-2.484-1.406 1.406 2.484-1.406 2.484 2.484-1.406 2.484 1.406-1.406-2.484 1.406-2.484zM21.984 2.016l-2.484 1.406-2.484-1.406 1.406 2.484-1.406 2.484 2.484-1.406 2.484 1.406-1.406-2.484zM14.391 7.313q-0.328-0.328-0.727-0.328t-0.727 0.328l-11.625 11.625q-0.328 0.328-0.328 0.727t0.328 0.727l2.297 2.297q0.328 0.328 0.727 0.328t0.727-0.328l11.625-11.625q0.328-0.328 0.328-0.727t-0.328-0.68l-2.297-2.344zM13.359 12.797l-2.156-2.156 2.438-2.438 2.156 2.156-2.438 2.438z"></path>
</symbol>
<symbol id="icon-auto_stories" viewBox="0 0 24 24">
<path d="M18.984 0.984l-4.969 5.016v11.016l4.969-4.5v-11.531zM0.984 6v14.672q0 0.188 0.164 0.328t0.352 0.141q0.094 0 0.141-0.023t0.094-0.023q1.031-0.469 2.344-0.773t2.438-0.305q1.453 0 2.93 0.328t2.555 1.172v-15.516q-1.078-0.844-2.555-1.172t-2.93-0.328q-1.5 0-2.953 0.328t-2.578 1.172zM23.016 19.5v-13.5q-0.469-0.328-0.961-0.563t-1.055-0.422v13.5q-0.844-0.281-1.711-0.398t-1.805-0.117q-0.844 0-1.852 0.188t-1.992 0.539-1.641 0.773v2.016q0.656-0.422 1.641-0.773t1.992-0.539 1.852-0.188q1.266 0 2.484 0.234t2.297 0.797q0.094 0.047 0.234 0.047 0.188 0 0.352-0.164t0.164-0.352v-1.078z"></path>
</symbol>
<symbol id="icon-construction" viewBox="0 0 24 24">
<path d="M13.781 15.188l2.109-2.156 6 6-2.109 2.156zM17.484 9.984q0.984 0 1.781-0.469t1.266-1.266 0.469-1.734q0-0.469-0.117-0.867t-0.305-0.727l-2.672 2.672-1.5-1.5 2.672-2.672q-0.328-0.188-0.727-0.305t-0.867-0.117q-0.938 0-1.734 0.469t-1.266 1.266-0.469 1.781q0 0.563 0.188 1.125l-1.828 1.875-1.781-1.781 0.703-0.703-1.406-1.406 2.109-2.156q-0.563-0.563-1.336-0.75t-1.547 0-1.336 0.75l-3.563 3.563 1.406 1.406h-2.813l-0.703 0.703 3.516 3.563 0.703-0.703v-2.859l1.453 1.406 0.703-0.703 1.781 1.781-7.406 7.406 2.109 2.109 11.391-11.344q0.563 0.188 1.125 0.188z"></path>
</symbol>
<symbol id="icon-domain_verification" viewBox="0 0 24 24">
<path d="M16.594 10.875l-1.406-1.406-4.266 4.219-2.109-2.109-1.406 1.406 3.516 3.563zM18.984 3.984h-13.969q-0.844 0-1.43 0.586t-0.586 1.43v12q0 0.844 0.586 1.43t1.43 0.586h13.969q0.844 0 1.43-0.586t0.586-1.43v-12q0-0.844-0.586-1.43t-1.43-0.586zM18.984 18h-13.969v-9.984h13.969v9.984z"></path>
</symbol>
<symbol id="icon-dynamic_form" viewBox="0 0 24 24">
<path d="M17.016 20.016v-9h-2.016v-7.031h6.984l-1.969 5.016h1.969zM15 12.984v7.031h-11.016q-0.797 0-1.383-0.586t-0.586-1.43v-3q0-0.844 0.586-1.43t1.383-0.586h11.016zM6.234 15.75h-1.5v1.5h1.5v-1.5zM12.984 3.984v7.031h-9q-0.797 0-1.383-0.586t-0.586-1.43v-3q0-0.844 0.586-1.43t1.383-0.586h9zM6.234 6.75h-1.5v1.5h1.5v-1.5z"></path>
</symbol>
<symbol id="icon-fact_check" viewBox="0 0 24 24">
<path d="M20.016 3h-16.031q-0.797 0-1.383 0.586t-0.586 1.43v13.969q0 0.844 0.586 1.43t1.383 0.586h16.031q0.797 0 1.383-0.586t0.586-1.43v-13.969q0-0.844-0.586-1.43t-1.383-0.586zM9.984 17.016h-4.969v-2.016h4.969v2.016zM9.984 12.984h-4.969v-1.969h4.969v1.969zM9.984 9h-4.969v-2.016h4.969v2.016zM14.813 15l-2.813-2.859 1.406-1.406 1.406 1.453 3.188-3.188 1.406 1.406z"></path>
</symbol>
<symbol id="icon-filter_alt" viewBox="0 0 24 24">
<path d="M4.266 5.625q0.609 0.75 1.359 1.734t1.523 1.969 1.406 1.828 1.031 1.336l0.398 0.492v6q0 0.422 0.305 0.727t0.727 0.305h1.969q0.422 0 0.727-0.305t0.305-0.727v-6l0.398-0.492t1.031-1.336 1.406-1.828 1.523-1.969 1.359-1.734q0.281-0.328 0.234-0.703t-0.328-0.656-0.703-0.281h-13.875q-0.422 0-0.703 0.281t-0.328 0.656 0.234 0.703z"></path>
</symbol>
<symbol id="icon-history_edu" viewBox="0 0 24 24">
<path d="M9 3.984v1.406q-1.266-0.516-2.625-0.516-1.313 0-2.602 0.516t-2.32 1.547l3.328 3.328h1.078v1.125q0.656 0.609 1.477 0.961t1.664 0.398v2.25h-3v3q0 0.844 0.586 1.43t1.43 0.586h9.984q0.844 0 1.523-0.422t1.078-1.102 0.398-1.477v-13.031h-12zM7.875 10.406v-2.156h-2.25l-1.078-1.031q0.891-0.328 1.828-0.328 2.063 0 3.563 1.453l1.406 1.406-0.188 0.188q-0.797 0.797-1.922 0.797-0.703 0-1.359-0.328zM18.984 17.016q0 0.375-0.281 0.68t-0.703 0.305-0.703-0.305-0.281-0.68v-2.016h-6v-2.578q0.891-0.375 1.547-1.031l0.188-0.188 2.859 2.813h1.406v-1.406l-6-6v-0.609h7.969v11.016z"></path>
</symbol>
<symbol id="icon-history_toggle_off" viewBox="0 0 24 24">
<path d="M15.094 19.359l0.984 1.734q-1.453 0.703-3.094 0.844v-2.016q1.125-0.141 2.109-0.563zM4.078 12.984h-2.016q0.141 1.641 0.844 3.094l1.734-0.984q-0.422-0.984-0.563-2.109zM15.094 4.641l0.984-1.734q-1.453-0.703-3.094-0.844v2.016q1.125 0.141 2.109 0.563zM19.922 11.016h2.016q-0.141-1.641-0.844-3.094l-1.734 0.984q0.422 0.984 0.563 2.109zM8.906 19.359l-0.984 1.734q1.453 0.703 3.094 0.844v-2.016q-1.125-0.141-2.109-0.563zM11.016 4.078v-2.016q-1.641 0.141-3.094 0.844l0.984 1.734q0.984-0.422 2.109-0.563zM18.375 7.172l1.734-1.031q-0.984-1.313-2.297-2.25l-0.984 1.734q0.891 0.656 1.547 1.547zM4.641 8.906l-1.734-0.984q-0.703 1.453-0.844 3.094h2.016q0.141-1.125 0.563-2.109zM19.922 12.984q-0.141 1.125-0.563 2.109l1.734 0.984q0.703-1.453 0.844-3.094h-2.016zM16.828 18.375l1.031 1.734q1.313-0.984 2.25-2.297l-1.734-0.984q-0.656 0.891-1.547 1.547zM7.172 5.625l-0.984-1.734q-1.359 0.984-2.297 2.297l1.734 0.984q0.656-0.844 1.547-1.547zM5.625 16.828l-1.734 0.984q0.984 1.313 2.297 2.297l0.984-1.734q-0.844-0.656-1.547-1.547zM12.984 6.984h-1.969v5.438l4.266 4.266 1.406-1.406-3.703-3.703v-4.594z"></path>
</symbol>
<symbol id="icon-insights" viewBox="0 0 24 24">
<path d="M21 8.016q-0.703 0-1.195 0.398t-0.703 0.984-0.023 1.102l-3.563 3.563q-0.516-0.141-1.031 0l-2.531-2.531q0.141-0.563-0.047-1.148t-0.68-0.984-1.242-0.398q-0.703 0-1.195 0.398t-0.68 0.984-0.047 1.148l-4.547 4.547q-0.563-0.188-1.125 0.023t-0.984 0.703-0.422 1.195q0 0.844 0.586 1.43t1.43 0.586q0.703 0 1.195-0.422t0.703-0.984 0.023-1.125l4.547-4.547q0.516 0.141 1.031 0l2.578 2.531q-0.188 0.563 0 1.148t0.68 0.984 1.242 0.398q0.703 0 1.195-0.398t0.703-0.984 0.023-1.148l3.563-3.516q0.563 0.141 1.125-0.047t0.984-0.68 0.422-1.242q0-0.797-0.586-1.383t-1.43-0.586zM15 9l0.938-2.063 2.063-0.938-2.063-0.938-0.938-2.063-0.938 2.063-2.063 0.938 2.063 0.938zM3.516 11.016l0.469-2.016 2.016-0.516-2.016-0.469-0.469-2.016-0.516 2.016-2.016 0.469 2.016 0.516z"></path>
</symbol>
<symbol id="icon-microwave" viewBox="0 0 24 24">
<path d="M6.797 10.594l-1.406-1.406q0.234-0.281 0.867-0.727t1.477-0.445q0.609 0 1.055 0.211t0.773 0.445q0.469 0.328 0.703 0.328 0.281 0 0.563-0.234t0.375-0.375l1.406 1.406q-0.281 0.328-0.891 0.773t-1.453 0.445q-0.609 0-1.055-0.234t-0.773-0.422q-0.234-0.188-0.398-0.281t-0.305-0.094q-0.281 0-0.563 0.234t-0.375 0.375zM7.734 15q0.141 0 0.305 0.094t0.398 0.234q0.328 0.234 0.773 0.445t1.055 0.211q0.844 0 1.453-0.445t0.891-0.727l-1.406-1.406q-0.094 0.141-0.398 0.375t-0.539 0.234-0.703-0.328q-0.328-0.234-0.773-0.469t-1.055-0.234q-0.844 0-1.477 0.445t-0.867 0.773l1.406 1.406q0.094-0.141 0.375-0.375t0.563-0.234zM21.984 6v12q0 0.844-0.586 1.43t-1.383 0.586h-16.031q-0.797 0-1.383-0.586t-0.586-1.43v-12q0-0.844 0.586-1.43t1.383-0.586h16.031q0.797 0 1.383 0.586t0.586 1.43zM14.016 6h-10.031v12h10.031v-12zM18.984 15.984q0-0.375-0.281-0.68t-0.703-0.305-0.703 0.305-0.281 0.68q0 0.422 0.281 0.727t0.703 0.305 0.703-0.305 0.281-0.727zM18.984 12q0-0.422-0.281-0.703t-0.703-0.281-0.703 0.281-0.281 0.703 0.281 0.703 0.703 0.281 0.703-0.281 0.281-0.703zM18.984 6.984h-1.969v2.016h1.969v-2.016z"></path>
</symbol>
<symbol id="icon-more_time" viewBox="0 0 24 24">
<path d="M9.984 8.016v6l4.734 2.906 0.797-1.219-4.031-2.391v-5.297h-1.5zM17.906 12q0.094 0.516 0.094 0.984 0 1.5-0.539 2.766t-1.5 2.227-2.227 1.5-2.719 0.539q-1.5 0-2.766-0.539t-2.227-1.5-1.5-2.227-0.539-2.766q0-1.453 0.539-2.719t1.5-2.227 2.227-1.5 2.766-0.539q1.031 0 1.969 0.281v-2.063q-0.984-0.234-1.969-0.234-1.875 0-3.516 0.703t-2.883 1.945-1.922 2.859-0.68 3.492 0.68 3.516 1.922 2.883 2.883 1.922 3.516 0.68 3.492-0.68 2.859-1.922 1.945-2.883 0.703-3.516q0-0.469-0.094-0.984h-2.016zM20.016 5.016v-3h-2.016v3h-3v1.969h3v3h2.016v-3h3v-1.969h-3z"></path>
</symbol>
<symbol id="icon-pending_actions" viewBox="0 0 24 24">
<path d="M17.016 12q-1.406 0-2.531 0.68t-1.805 1.805-0.68 2.531q0 1.359 0.68 2.508t1.805 1.805 2.531 0.656q1.359 0 2.508-0.656t1.805-1.805 0.656-2.508q0-1.406-0.656-2.531t-1.805-1.805-2.508-0.68zM18.656 19.359l-2.156-2.156v-3.188h0.984v2.766l1.875 1.875zM18 3h-3.188q-0.328-0.891-1.078-1.453t-1.734-0.563-1.734 0.563-1.078 1.453h-3.188q-0.844 0-1.43 0.586t-0.586 1.43v15q0 0.797 0.586 1.383t1.43 0.586h6.094q-0.891-0.844-1.406-1.969h-4.688v-15h2.016v3h7.969v-3h2.016v5.063q1.031 0.141 2.016 0.609v-5.672q0-0.844-0.586-1.43t-1.43-0.586zM12 5.016q-0.422 0-0.703-0.305t-0.281-0.727q0-0.375 0.281-0.68t0.703-0.305 0.703 0.305 0.281 0.68q0 0.422-0.281 0.727t-0.703 0.305z"></path>
</symbol>
<symbol id="icon-room_preferences" viewBox="0 0 24 24">
<path d="M14.016 11.25v-5.25h3v3.984h1.969v-6h-4.969v-0.984h-9v15.984h-2.016v2.016h9.281q-0.609-0.844-0.938-1.852t-0.328-2.133q0-1.781 0.82-3.281t2.18-2.484zM9.984 11.016h2.016v1.969h-2.016v-1.969zM21.703 16.359l1.125-0.984-0.984-1.734-1.453 0.469q-0.469-0.375-1.078-0.609l-0.328-1.5h-1.969l-0.328 1.5q-0.609 0.234-1.078 0.609l-1.453-0.469-0.984 1.734 1.125 0.984q-0.094 0.609 0 1.266l-1.125 0.984 0.984 1.734 1.453-0.469q0.469 0.375 1.078 0.609l0.328 1.5h1.969l0.328-1.453q0.609-0.234 1.078-0.656l1.453 0.516 0.984-1.734-1.125-1.031q0.047-0.375 0.047-0.633t-0.047-0.633zM18 18.984q-0.844 0-1.43-0.586t-0.586-1.383q0-0.844 0.586-1.43t1.43-0.586 1.43 0.586 0.586 1.43q0 0.797-0.586 1.383t-1.43 0.586z"></path>
</symbol>
<symbol id="icon-rule" viewBox="0 0 24 24">
<path d="M16.547 11.016l-3.563-3.563 1.406-1.406 2.156 2.109 4.219-4.219 1.406 1.406zM11.016 6.984h-9v2.016h9v-2.016zM21 13.406l-1.406-1.406-2.578 2.578-2.625-2.578-1.406 1.406 2.625 2.578-2.625 2.625 1.406 1.406 2.625-2.625 2.578 2.625 1.406-1.406-2.578-2.625zM11.016 15h-9v2.016h9v-2.016z"></path>
</symbol>
<symbol id="icon-run_circle" viewBox="0 0 24 24">
<path d="M12 2.016q-2.063 0-3.867 0.773t-3.188 2.156-2.156 3.188-0.773 3.867 0.773 3.867 2.156 3.188 3.188 2.156 3.867 0.773 3.867-0.773 3.188-2.156 2.156-3.188 0.773-3.867-0.773-3.867-2.156-3.188-3.188-2.156-3.867-0.773zM13.5 6q0.422 0 0.703 0.305t0.281 0.68q0 0.422-0.281 0.727t-0.703 0.305-0.703-0.305-0.281-0.727q0-0.375 0.281-0.68t0.703-0.305zM15.984 12q-0.516 0-1.359-0.422t-1.547-1.359l-0.375 2.391 1.313 1.406v3.984h-1.031v-3.563l-1.078-1.219-0.516 2.625-3.797-0.75 0.188-0.984 2.813 0.563 0.938-4.875-1.547 0.563v1.641h-0.984v-2.344l3.281-1.219q0.375-0.141 0.727 0.023t0.539 0.492q0.422 0.844 0.914 1.289t0.914 0.609 0.609 0.164v0.984z"></path>
</symbol>
<symbol id="icon-star_outline1" viewBox="0 0 24 24">
<path d="M21.984 9.234l-7.172-0.609-2.813-6.609-2.813 6.609-7.172 0.609 5.438 4.734-1.641 7.031 6.188-3.75 6.188 3.75-1.641-7.031zM12 15.422l-3.75 2.25 0.984-4.266-3.328-2.906 4.406-0.375 1.688-4.031 1.688 4.031 4.406 0.375-3.328 2.906 0.984 4.266z"></path>
</symbol>
<symbol id="icon-star_rate" viewBox="0 0 24 24">
<path d="M14.438 9.984l-2.438-7.969-2.438 7.969h-7.547l6.188 4.406-2.391 7.594 6.188-4.688 6.188 4.688-2.344-7.594 6.141-4.406h-7.547z"></path>
</symbol>
<symbol id="icon-table_view" viewBox="0 0 24 24">
<path d="M18.984 6.984h-9.984q-0.844 0-1.43 0.586t-0.586 1.43v9.984q0 0.844 0.586 1.43t1.43 0.586h9.984q0.844 0 1.43-0.586t0.586-1.43v-9.984q0-0.844-0.586-1.43t-1.43-0.586zM18.984 9v2.016h-9.984v-2.016h9.984zM12.984 15v-2.016h2.016v2.016h-2.016zM15 17.016v1.969h-2.016v-1.969h2.016zM11.016 15h-2.016v-2.016h2.016v2.016zM17.016 12.984h1.969v2.016h-1.969v-2.016zM9 17.016h2.016v1.969h-2.016v-1.969zM17.016 18.984v-1.969h1.969v1.969h-1.969zM6 17.016h-0.984q-0.844 0-1.43-0.586t-0.586-1.43v-9.984q0-0.844 0.586-1.43t1.43-0.586h9.984q0.844 0 1.43 0.586t0.586 1.43v0.984h-2.016v-0.984h-9.984v9.984h0.984v2.016z"></path>
</symbol>
<symbol id="icon-wysiwyg" viewBox="0 0 24 24">
<path d="M18.984 3h-13.969q-0.844 0-1.43 0.586t-0.586 1.43v13.969q0 0.844 0.586 1.43t1.43 0.586h13.969q0.844 0 1.43-0.586t0.586-1.43v-13.969q0-0.844-0.586-1.43t-1.43-0.586zM18.984 18.984h-13.969v-12h13.969v12zM17.016 12h-10.031v-2.016h10.031v2.016zM12.984 15.984h-6v-1.969h6v1.969z"></path>
</symbol>
<symbol id="icon-book_online" viewBox="0 0 24 24">
<path d="M13.359 20.016l0.563 1.969h-8.906q-0.844 0-1.43-0.586t-0.586-1.383v-14.016q0-0.844 0.586-1.43t1.43-0.586h0.984v-1.969h2.016v1.969h7.969v-1.969h2.016v1.969h0.984q0.844 0 1.43 0.586t0.586 1.43v8.906l-2.016-0.563v-4.359h-13.969v10.031h8.344zM21.703 21.281l-3.234-3.234 2.531-1.031-6.984-2.016 1.969 6.984 1.078-2.484 3.234 3.188zM12 17.016v-5.016h-5.016v5.016h5.016z"></path>
</symbol>
<symbol id="icon-follow_the_signs" viewBox="0 0 24 24">
<path d="M9.516 5.484q0.797 0 1.383-0.586t0.586-1.383q0-0.844-0.586-1.43t-1.383-0.586q-0.844 0-1.43 0.586t-0.586 1.43q0 0.797 0.586 1.383t1.43 0.586zM5.766 8.906l-2.766 14.109h2.109l1.734-8.016 2.156 2.016v6h2.016v-7.547l-2.063-2.063 0.609-3q0.984 1.172 2.391 1.875t3.047 0.703v-1.969q-1.406 0-2.531-0.68t-1.828-1.805l-0.938-1.594q-0.281-0.422-0.727-0.68t-0.961-0.258q-0.375 0-0.75 0.141l-5.25 2.156v4.688h1.969v-3.328zM12.984 2.016v6.984h3.75v14.016h1.5v-14.016h3.75v-6.984h-9zM18 8.016v-1.781h-3.516v-1.5h3.516v-1.734l2.484 2.484z"></path>
</symbol>
<symbol id="icon-add_task" viewBox="0 0 24 24">
<path d="M21.984 5.203l-11.391 11.391-4.266-4.219 1.453-1.406 2.813 2.813 9.984-9.984zM12 20.016q-1.641 0-3.094-0.633t-2.555-1.734-1.734-2.555-0.633-3.094 0.633-3.094 1.734-2.555 2.555-1.734 3.094-0.633q1.172 0 2.25 0.328t2.016 0.938l1.453-1.453q-1.219-0.844-2.672-1.313t-3.047-0.469q-2.063 0-3.867 0.773t-3.188 2.156-2.156 3.188-0.773 3.867 0.773 3.867 2.156 3.188 3.188 2.156 3.867 0.773q1.313 0 2.508-0.305t2.273-0.914l-1.5-1.5q-0.75 0.375-1.57 0.563t-1.711 0.188zM18.984 15h-3v2.016h3v3h2.016v-3h3v-2.016h-3v-3h-2.016v3z"></path>
</symbol>
<symbol id="icon-published_with_changes" viewBox="0 0 24 24">
<path d="M17.672 9.516l-7.078 7.078-4.266-4.219 1.453-1.406 2.813 2.813 5.672-5.672zM3.984 12q0-1.734 0.727-3.258t1.898-2.602l2.391 2.344v-6h-6l2.203 2.203q-1.453 1.359-2.32 3.258t-0.867 4.055q0 1.969 0.68 3.68t1.898 3.047 2.859 2.18 3.563 1.031v-2.016q-1.5-0.188-2.766-0.867t-2.227-1.758-1.5-2.414-0.539-2.883zM21.984 12q0-1.969-0.68-3.68t-1.898-3.047-2.859-2.18-3.563-1.031v2.016q1.5 0.188 2.766 0.867t2.227 1.758 1.5 2.414 0.539 2.883q0 1.734-0.727 3.258t-1.898 2.602l-2.391-2.344v6h6l-2.203-2.203q1.453-1.359 2.32-3.258t0.867-4.055z"></path>
</symbol>
</defs>
</svg>
