<svg aria-hidden="true" style="position: absolute; width: 0; height: 0; overflow: hidden;" version="1.1"
  xmlns="http://www.w3.org/2000/svg"
  xmlns:xlink="http://www.w3.org/1999/xlink">
  <defs>
    <symbol id="icon-fiber_new" viewBox="0 0 24 24">
      <path d="M20.484 14.016v-5.016h-1.219v4.5h-1.125v-3.516h-1.266v3.516h-1.125v-4.5h-1.266v5.016q0 0.422 0.305 0.703t0.727 0.281h3.984q0.422 0 0.703-0.281t0.281-0.703zM13.5 10.266v-1.266h-3.984v6h3.984v-1.266h-2.484v-1.078h2.484v-1.266h-2.484v-1.125h2.484zM8.484 15v-6h-1.219v3.516l-2.531-3.516h-1.219v6h1.219v-3.516l2.578 3.516h1.172zM20.016 3.984q0.844 0 1.406 0.586t0.563 1.43v12q0 0.844-0.563 1.43t-1.406 0.586h-16.031q-0.844 0-1.406-0.586t-0.563-1.43v-12q0-0.844 0.563-1.43t1.406-0.586h16.031z"></path>
    </symbol>
    <symbol id="icon-lightbulb" viewBox="0 0 24 24">
      <path d="M12 2.016q2.906 0 4.945 2.039t2.039 4.945q0 3.516-3 5.719v2.297q0 0.422-0.281 0.703t-0.703 0.281h-6q-0.422 0-0.703-0.281t-0.281-0.703v-2.297q-3-2.063-3-5.719 0-2.906 2.039-4.945t4.945-2.039zM9 21v-0.984h6v0.984q0 0.422-0.281 0.703t-0.703 0.281h-4.031q-0.422 0-0.703-0.281t-0.281-0.703z"></path>
    </symbol>
    <symbol id="icon-add" viewBox="0 0 24 24">
      <path d="M18.984 12.984h-6v6h-1.969v-6h-6v-1.969h6v-6h1.969v6h6v1.969z"></path>
    </symbol>
    <symbol id="icon-clear" viewBox="0 0 24 24">
      <path d="M18.984 6.422l-5.578 5.578 5.578 5.578-1.406 1.406-5.578-5.578-5.578 5.578-1.406-1.406 5.578-5.578-5.578-5.578 1.406-1.406 5.578 5.578 5.578-5.578z"></path>
    </symbol>
    <symbol id="icon-gesture" viewBox="0 0 24 24">
      <path d="M13.875 18.563q0.656 0 1.313-0.867t0.844-2.648q-1.406 0.375-2.156 1.266t-0.75 1.5q0 0.328 0.234 0.539t0.516 0.211zM4.594 6.891l-1.734-1.688q0.469-0.563 0.844-0.938 1.266-1.266 2.719-1.266 0.891 0 1.711 0.703t0.82 2.156q0 1.406-1.313 3.281-1.313 1.828-1.828 3.516-0.281 0.797-0.164 1.359t0.492 0.563q0.422 0 1.125-0.844 1.031-1.031 2.297-2.719 2.25-2.813 4.922-2.813 1.969 0 2.93 1.289t1.102 2.883h2.484v2.484h-2.438q-0.281 3.234-1.734 4.688t-3 1.453q-1.313 0-2.25-0.914t-0.938-2.18q0-1.547 1.406-3.234t3.984-2.156q-0.047-0.375-0.070-0.516t-0.141-0.445-0.281-0.445-0.492-0.258-0.797-0.117q-1.313 0-4.078 3.422-0.797 0.984-1.102 1.336t-0.867 0.82-1.078 0.609q-1.641 0.516-2.813-0.609t-1.172-2.813q0-0.703 0.258-1.547t0.68-1.641 0.797-1.43 0.727-1.148 0.398-0.563q0.797-1.313 0.281-1.5-0.328-0.141-1.688 1.219z"></path>
    </symbol>
    <symbol id="icon-ballot" viewBox="0 0 24 24">
      <path d="M6.984 14.016h3v3h-3v-3zM6 18h5.016v-5.016h-5.016v5.016zM6.984 6.984h3v3h-3v-3zM6 11.016h5.016v-5.016h-5.016v5.016zM18.984 21h-13.969q-0.797 0-1.406-0.609t-0.609-1.406v-13.969q0-0.797 0.609-1.406t1.406-0.609h13.969q0.797 0 1.406 0.609t0.609 1.406v13.969q0 0.797-0.609 1.406t-1.406 0.609zM12.984 16.5h5.016v-2.016h-5.016v2.016zM12.984 9.516h5.016v-2.016h-5.016v2.016z"></path>
    </symbol>
    <symbol id="icon-add_link" viewBox="0 0 24 24">
      <path d="M18.984 12v3h3v2.016h-3v3h-1.969v-3h-3v-2.016h3v-3h1.969zM3.891 12q0 1.266 0.914 2.18t2.18 0.914h4.031v1.922h-4.031q-2.063 0-3.516-1.477t-1.453-3.539 1.453-3.539 3.516-1.477h4.031v1.922h-4.031q-1.266 0-2.18 0.914t-0.914 2.18zM20.109 12q0-1.266-0.914-2.18t-2.18-0.914h-4.031v-1.922h4.031q2.063 0 3.516 1.477t1.453 3.539h-1.875zM8.016 11.016h7.969v1.969h-7.969v-1.969z"></path>
    </symbol>
    <symbol id="icon-inventory" viewBox="0 0 24 24">
      <path d="M20.016 6.984v-3h-16.031v3h16.031zM15 14.016v-2.016h-6v2.016h6zM20.016 2.016q0.75 0 1.359 0.586t0.609 1.383v3.047q0 1.125-0.984 1.688v11.297q0 0.797-0.656 1.383t-1.359 0.586h-13.969q-0.703 0-1.359-0.586t-0.656-1.383v-11.297q-0.984-0.563-0.984-1.688v-3.047q0-0.797 0.609-1.383t1.359-0.586h16.031z"></path>
    </symbol>
    <symbol id="icon-access_alarm" viewBox="0 0 24 24">
      <path d="M12 20.016q2.906 0 4.945-2.063t2.039-4.969-2.039-4.945-4.945-2.039-4.945 2.039-2.039 4.945 2.039 4.969 4.945 2.063zM12 3.984q3.75 0 6.375 2.648t2.625 6.352-2.625 6.352-6.375 2.648-6.375-2.648-2.625-6.352 2.625-6.352 6.375-2.648zM12.516 8.016v5.25l3.984 2.344-0.75 1.219-4.734-2.813v-6h1.5zM7.875 3.375l-4.594 3.844-1.266-1.5 4.594-3.844zM21.984 5.719l-1.266 1.547-4.594-3.891 1.266-1.5z"></path>
    </symbol>
    <symbol id="icon-access_alarms" viewBox="0 0 24 24">
      <path d="M12 20.016q2.906 0 4.945-2.063t2.039-4.969-2.039-4.945-4.945-2.039-4.945 2.039-2.039 4.945 2.039 4.969 4.945 2.063zM12 3.984q3.75 0 6.375 2.625t2.625 6.375-2.625 6.375-6.375 2.625-6.375-2.625-2.625-6.375 2.625-6.375 6.375-2.625zM12.516 8.016v5.297l3.984 2.391-0.797 1.219-4.688-2.906v-6h1.5zM7.922 3.422l-4.641 3.797-1.266-1.5 4.594-3.797zM21.984 5.719l-1.266 1.5-4.641-3.938 1.313-1.5z"></path>
    </symbol>
    <symbol id="icon-access_time" viewBox="0 0 24 24">
      <path d="M12.516 6.984v5.25l4.5 2.672-0.75 1.266-5.25-3.188v-6h1.5zM12 20.016q3.281 0 5.648-2.367t2.367-5.648-2.367-5.648-5.648-2.367-5.648 2.367-2.367 5.648 2.367 5.648 5.648 2.367zM12 2.016q4.125 0 7.055 2.93t2.93 7.055-2.93 7.055-7.055 2.93-7.055-2.93-2.93-7.055 2.93-7.055 7.055-2.93z"></path>
    </symbol>
    <symbol id="icon-add_alarm" viewBox="0 0 24 24">
      <path d="M12.984 9v3h3v2.016h-3v3h-1.969v-3h-3v-2.016h3v-3h1.969zM12 20.016q2.906 0 4.945-2.063t2.039-4.969-2.039-4.945-4.945-2.039-4.945 2.039-2.039 4.945 2.039 4.969 4.945 2.063zM12 3.984q3.75 0 6.375 2.648t2.625 6.352-2.625 6.352-6.375 2.648-6.375-2.648-2.625-6.352 2.625-6.352 6.375-2.648zM21.984 5.719l-1.266 1.547-4.594-3.891 1.266-1.5zM7.875 3.375l-4.594 3.844-1.266-1.5 4.594-3.844z"></path>
    </symbol>
    <symbol id="icon-keyboard1" viewBox="0 0 24 24">
      <path d="M18.984 9.984v-1.969h-1.969v1.969h1.969zM18.984 12.984v-1.969h-1.969v1.969h1.969zM15.984 9.984v-1.969h-1.969v1.969h1.969zM15.984 12.984v-1.969h-1.969v1.969h1.969zM15.984 17.016v-2.016h-7.969v2.016h7.969zM6.984 9.984v-1.969h-1.969v1.969h1.969zM6.984 12.984v-1.969h-1.969v1.969h1.969zM8.016 11.016v1.969h1.969v-1.969h-1.969zM8.016 8.016v1.969h1.969v-1.969h-1.969zM11.016 11.016v1.969h1.969v-1.969h-1.969zM11.016 8.016v1.969h1.969v-1.969h-1.969zM20.016 5.016q0.797 0 1.383 0.586t0.586 1.383v10.031q0 0.797-0.586 1.383t-1.383 0.586h-16.031q-0.797 0-1.383-0.586t-0.586-1.383v-10.031q0-0.797 0.586-1.383t1.383-0.586h16.031z"></path>
    </symbol>
    <symbol id="icon-keyboard_arrow_down" viewBox="0 0 24 24">
      <path d="M7.406 8.578l4.594 4.594 4.594-4.594 1.406 1.406-6 6-6-6z"></path>
    </symbol>
    <symbol id="icon-keyboard_arrow_left" viewBox="0 0 24 24">
      <path d="M15.422 16.594l-1.406 1.406-6-6 6-6 1.406 1.406-4.594 4.594z"></path>
    </symbol>
    <symbol id="icon-keyboard_arrow_right" viewBox="0 0 24 24">
      <path d="M8.578 16.594l4.594-4.594-4.594-4.594 1.406-1.406 6 6-6 6z"></path>
    </symbol>
    <symbol id="icon-keyboard_arrow_up" viewBox="0 0 24 24">
      <path d="M7.406 15.422l-1.406-1.406 6-6 6 6-1.406 1.406-4.594-4.594z"></path>
    </symbol>
    <symbol id="icon-keyboard_hide" viewBox="0 0 24 24">
      <path d="M12 23.016l-3.984-4.031h7.969zM18.984 8.016v-2.016h-1.969v2.016h1.969zM18.984 11.016v-2.016h-1.969v2.016h1.969zM15.984 8.016v-2.016h-1.969v2.016h1.969zM15.984 11.016v-2.016h-1.969v2.016h1.969zM15.984 15v-2.016h-7.969v2.016h7.969zM6.984 8.016v-2.016h-1.969v2.016h1.969zM6.984 11.016v-2.016h-1.969v2.016h1.969zM8.016 9v2.016h1.969v-2.016h-1.969zM8.016 6v2.016h1.969v-2.016h-1.969zM11.016 9v2.016h1.969v-2.016h-1.969zM11.016 6v2.016h1.969v-2.016h-1.969zM20.016 3q0.797 0 1.383 0.609t0.586 1.406v9.984q0 0.797-0.586 1.406t-1.383 0.609h-16.031q-0.797 0-1.383-0.609t-0.586-1.406v-9.984q0-0.797 0.586-1.406t1.383-0.609h16.031z"></path>
    </symbol>
    <symbol id="icon-dehaze" viewBox="0 0 24 24">
      <path d="M2.016 5.484h19.969v2.016h-19.969v-2.016zM2.016 10.5h19.969v2.016h-19.969v-2.016zM2.016 15.516h19.969v1.969h-19.969v-1.969z"></path>
    </symbol>
    <symbol id="icon-view_compact" viewBox="0 0 24 24">
      <path d="M3 5.016h18.984v6h-18.984v-6zM9.984 18.984v-6.984h12v6.984h-12zM3 18.984v-6.984h6v6.984h-6z"></path>
    </symbol>
    <symbol id="icon-local_printshop" viewBox="0 0 24 24">
      <path d="M18 3v3.984h-12v-3.984h12zM18.984 12q0.422 0 0.727-0.281t0.305-0.703-0.305-0.727-0.727-0.305-0.703 0.305-0.281 0.727 0.281 0.703 0.703 0.281zM15.984 18.984v-4.969h-7.969v4.969h7.969zM18.984 8.016q1.219 0 2.109 0.891t0.891 2.109v6h-3.984v3.984h-12v-3.984h-3.984v-6q0-1.219 0.891-2.109t2.109-0.891h13.969z"></path>
    </symbol>
    <symbol id="icon-apps" viewBox="0 0 24 24">
      <path d="M15.984 20.016v-4.031h4.031v4.031h-4.031zM15.984 14.016v-4.031h4.031v4.031h-4.031zM9.984 8.016v-4.031h4.031v4.031h-4.031zM15.984 3.984h4.031v4.031h-4.031v-4.031zM9.984 14.016v-4.031h4.031v4.031h-4.031zM3.984 14.016v-4.031h4.031v4.031h-4.031zM3.984 20.016v-4.031h4.031v4.031h-4.031zM9.984 20.016v-4.031h4.031v4.031h-4.031zM3.984 8.016v-4.031h4.031v4.031h-4.031z"></path>
    </symbol>
    <symbol id="icon-arrow_back" viewBox="0 0 24 24">
      <path d="M20.016 11.016v1.969h-12.188l5.578 5.625-1.406 1.406-8.016-8.016 8.016-8.016 1.406 1.406-5.578 5.625h12.188z"></path>
    </symbol>
    <symbol id="icon-arrow_drop_down" viewBox="0 0 24 24">
      <path d="M6.984 9.984h10.031l-5.016 5.016z"></path>
    </symbol>
    <symbol id="icon-arrow_drop_up" viewBox="0 0 24 24">
      <path d="M6.984 14.016l5.016-5.016 5.016 5.016h-10.031z"></path>
    </symbol>
    <symbol id="icon-arrow_forward" viewBox="0 0 24 24">
      <path d="M12 3.984l8.016 8.016-8.016 8.016-1.406-1.406 5.578-5.625h-12.188v-1.969h12.188l-5.578-5.625z"></path>
    </symbol>
    <symbol id="icon-check1" viewBox="0 0 24 24">
      <path d="M9 16.172l10.594-10.594 1.406 1.406-12 12-5.578-5.578 1.406-1.406z"></path>
    </symbol>
    <symbol id="icon-expand_less" viewBox="0 0 24 24">
      <path d="M12 8.016l6 6-1.406 1.406-4.594-4.594-4.594 4.594-1.406-1.406z"></path>
    </symbol>
    <symbol id="icon-expand_more" viewBox="0 0 24 24">
      <path d="M16.594 8.578l1.406 1.406-6 6-6-6 1.406-1.406 4.594 4.594z"></path>
    </symbol>
    <symbol id="icon-menu1" viewBox="0 0 24 24">
      <path d="M3 6h18v2.016h-18v-2.016zM3 12.984v-1.969h18v1.969h-18zM3 18v-2.016h18v2.016h-18z"></path>
    </symbol>
    <symbol id="icon-keyboard_control" viewBox="0 0 24 24">
      <path d="M12 9.984q0.797 0 1.406 0.609t0.609 1.406-0.609 1.406-1.406 0.609-1.406-0.609-0.609-1.406 0.609-1.406 1.406-0.609zM18 9.984q0.797 0 1.406 0.609t0.609 1.406-0.609 1.406-1.406 0.609-1.406-0.609-0.609-1.406 0.609-1.406 1.406-0.609zM6 9.984q0.797 0 1.406 0.609t0.609 1.406-0.609 1.406-1.406 0.609-1.406-0.609-0.609-1.406 0.609-1.406 1.406-0.609z"></path>
    </symbol>
    <symbol id="icon-more_vert" viewBox="0 0 24 24">
      <path d="M12 15.984q0.797 0 1.406 0.609t0.609 1.406-0.609 1.406-1.406 0.609-1.406-0.609-0.609-1.406 0.609-1.406 1.406-0.609zM12 9.984q0.797 0 1.406 0.609t0.609 1.406-0.609 1.406-1.406 0.609-1.406-0.609-0.609-1.406 0.609-1.406 1.406-0.609zM12 8.016q-0.797 0-1.406-0.609t-0.609-1.406 0.609-1.406 1.406-0.609 1.406 0.609 0.609 1.406-0.609 1.406-1.406 0.609z"></path>
    </symbol>
    <symbol id="icon-refresh" viewBox="0 0 24 24">
      <path d="M17.672 6.328l2.344-2.344v7.031h-7.031l3.234-3.234q-1.781-1.781-4.219-1.781-2.484 0-4.242 1.758t-1.758 4.242 1.758 4.242 4.242 1.758q1.734 0 3.398-1.172t2.273-2.813h2.063q-0.656 2.625-2.813 4.313t-4.922 1.688q-3.281 0-5.625-2.344t-2.344-5.672 2.344-5.672 5.625-2.344q1.406 0 3.070 0.68t2.602 1.664z"></path>
    </symbol>
    <symbol id="icon-unfold_less" viewBox="0 0 24 24">
      <path d="M16.594 5.391l-4.594 4.594-4.594-4.594 1.406-1.406 3.188 3.188 3.188-3.188zM7.406 18.609l4.594-4.594 4.594 4.594-1.406 1.406-3.188-3.188-3.188 3.188z"></path>
    </symbol>
    <symbol id="icon-unfold_more" viewBox="0 0 24 24">
      <path d="M12 18.188l3.188-3.188 1.406 1.406-4.594 4.594-4.594-4.594 1.406-1.406zM12 5.813l-3.188 3.188-1.406-1.406 4.594-4.594 4.594 4.594-1.406 1.406z"></path>
    </symbol>
    <symbol id="icon-arrow_upward" viewBox="0 0 24 24">
      <path d="M3.984 12l8.016-8.016 8.016 8.016-1.453 1.406-5.578-5.578v12.188h-1.969v-12.188l-5.625 5.578z"></path>
    </symbol>
    <symbol id="icon-arrow_downward" viewBox="0 0 24 24">
      <path d="M20.016 12l-8.016 8.016-8.016-8.016 1.453-1.406 5.578 5.578v-12.188h1.969v12.188l5.625-5.578z"></path>
    </symbol>
    <symbol id="icon-arrow_left" viewBox="0 0 24 24">
      <path d="M14.016 6.984v10.031l-5.016-5.016z"></path>
    </symbol>
    <symbol id="icon-arrow_right" viewBox="0 0 24 24">
      <path d="M9.984 17.016v-10.031l5.016 5.016z"></path>
    </symbol>
    <symbol id="icon-event_available" viewBox="0 0 24 24">
      <path d="M18.984 18.984v-10.969h-13.969v10.969h13.969zM18.984 3q0.797 0 1.406 0.609t0.609 1.406v13.969q0 0.797-0.609 1.406t-1.406 0.609h-13.969q-0.844 0-1.43-0.586t-0.586-1.43v-13.969q0-0.797 0.586-1.406t1.43-0.609h0.984v-2.016h2.016v2.016h7.969v-2.016h2.016v2.016h0.984zM16.547 11.063l-5.953 5.953-3.188-3.188 1.078-1.078 2.109 2.109 4.875-4.875z"></path>
    </symbol>
    <symbol id="icon-event_busy" viewBox="0 0 24 24">
      <path d="M18.984 18.984v-10.969h-13.969v10.969h13.969zM18.984 3q0.797 0 1.406 0.609t0.609 1.406v13.969q0 0.797-0.609 1.406t-1.406 0.609h-13.969q-0.844 0-1.43-0.586t-0.586-1.43v-13.969q0-0.797 0.586-1.406t1.43-0.609h0.984v-2.016h2.016v2.016h7.969v-2.016h2.016v2.016h0.984zM9.328 17.016l-1.078-1.078 2.438-2.438-2.438-2.438 1.078-1.078 2.438 2.438 2.438-2.438 1.031 1.078-2.438 2.438 2.438 2.438-1.031 1.078-2.438-2.438z"></path>
    </symbol>
    <symbol id="icon-event_note" viewBox="0 0 24 24">
      <path d="M14.016 14.016v1.969h-7.031v-1.969h7.031zM18.984 18.984v-10.969h-13.969v10.969h13.969zM18.984 3q0.797 0 1.406 0.609t0.609 1.406v13.969q0 0.797-0.609 1.406t-1.406 0.609h-13.969q-0.844 0-1.43-0.586t-0.586-1.43v-13.969q0-0.797 0.586-1.406t1.43-0.609h0.984v-2.016h2.016v2.016h7.969v-2.016h2.016v2.016h0.984zM17.016 9.984v2.016h-10.031v-2.016h10.031z"></path>
    </symbol>
    <symbol id="icon-notifications" viewBox="0 0 24 24">
      <path d="M18 15.984l2.016 2.016v0.984h-16.031v-0.984l2.016-2.016v-4.969q0-2.344 1.195-4.078t3.305-2.25v-0.703q0-0.609 0.422-1.055t1.078-0.445 1.078 0.445 0.422 1.055v0.703q2.109 0.516 3.305 2.25t1.195 4.078v4.969zM12 21.984q-0.844 0-1.43-0.563t-0.586-1.406h4.031q0 0.797-0.609 1.383t-1.406 0.586z"></path>
    </symbol>
    <symbol id="icon-notifications_none" viewBox="0 0 24 24">
      <path d="M15.984 17.016v-6q0-1.922-1.078-3.211t-2.906-1.289-2.906 1.289-1.078 3.211v6h7.969zM18 15.984l2.016 2.016v0.984h-16.031v-0.984l2.016-2.016v-4.969q0-2.344 1.195-4.078t3.305-2.25v-0.703q0-0.609 0.422-1.055t1.078-0.445 1.078 0.445 0.422 1.055v0.703q2.109 0.516 3.305 2.25t1.195 4.078v4.969zM12 21.984q-0.797 0-1.406-0.586t-0.609-1.383h4.031q0 0.797-0.609 1.383t-1.406 0.586z"></path>
    </symbol>
    <symbol id="icon-notifications_off" viewBox="0 0 24 24">
      <path d="M18 14.672l-8.953-9.422q0.141-0.047 0.375-0.164l0.328-0.164h0.047l0.281-0.141q0.047 0 0.188-0.047t0.234-0.047v-0.703q0-0.609 0.422-1.055t1.078-0.445 1.078 0.445 0.422 1.055v0.703q2.109 0.516 3.305 2.25t1.195 4.078v3.656zM12 21.984q-0.844 0-1.43-0.563t-0.586-1.406h4.031q0 0.844-0.586 1.406t-1.43 0.563zM7.828 6.141q1.125 1.172 5.883 6.047t7.289 7.547l-1.266 1.266-2.016-2.016h-13.734v-0.984l2.016-2.016v-5.016q0-1.922 0.797-3.422l-2.813-2.766 1.266-1.313z"></path>
    </symbol>
    <symbol id="icon-notifications_on" viewBox="0 0 24 24">
      <path d="M12 21.984q-0.844 0-1.43-0.586t-0.586-1.383h3.984q0 0.844-0.563 1.406t-1.406 0.563zM18 11.016v4.969l2.016 2.016v0.984h-16.031v-0.984l2.016-2.016v-4.969q0-2.344 1.195-4.078t3.305-2.25v-0.703q0-0.609 0.422-1.055t1.078-0.445 1.078 0.445 0.422 1.055v0.703q2.109 0.516 3.305 2.25t1.195 4.078zM19.969 10.5q-0.094-1.688-1.125-3.563t-2.391-2.859l1.406-1.406q3.891 3 4.125 7.828h-2.016zM7.594 4.078q-1.359 0.984-2.414 2.859t-1.148 3.563h-2.016q0.234-4.828 4.125-7.828z"></path>
    </symbol>
    <symbol id="icon-person" viewBox="0 0 24 24">
      <path d="M12 14.016q2.531 0 5.273 1.102t2.742 2.883v2.016h-16.031v-2.016q0-1.781 2.742-2.883t5.273-1.102zM12 12q-1.641 0-2.813-1.172t-1.172-2.813 1.172-2.836 2.813-1.195 2.813 1.195 1.172 2.836-1.172 2.813-2.813 1.172z"></path>
    </symbol>
    <symbol id="icon-account_box" viewBox="0 0 24 24">
      <path d="M6 17.016v0.984h12v-0.984q0-1.359-2.063-2.227t-3.938-0.867-3.938 0.867-2.063 2.227zM15 9q0-1.219-0.891-2.109t-2.109-0.891-2.109 0.891-0.891 2.109 0.891 2.109 2.109 0.891 2.109-0.891 0.891-2.109zM3 5.016q0-0.844 0.586-1.43t1.43-0.586h13.969q0.797 0 1.406 0.609t0.609 1.406v13.969q0 0.797-0.609 1.406t-1.406 0.609h-13.969q-0.844 0-1.43-0.586t-0.586-1.43v-13.969z"></path>
    </symbol>
    <symbol id="icon-account_circle" viewBox="0 0 24 24">
      <path d="M12 19.219q1.594 0 3.352-0.938t2.648-2.297q-0.047-1.313-2.109-2.203t-3.891-0.891-3.891 0.867-2.109 2.227q0.891 1.359 2.648 2.297t3.352 0.938zM12 5.016q-1.219 0-2.109 0.891t-0.891 2.109 0.891 2.109 2.109 0.891 2.109-0.891 0.891-2.109-0.891-2.109-2.109-0.891zM12 2.016q4.125 0 7.055 2.93t2.93 7.055-2.93 7.055-7.055 2.93-7.055-2.93-2.93-7.055 2.93-7.055 7.055-2.93z"></path>
    </symbol>
    <symbol id="icon-alarm_off" viewBox="0 0 24 24">
      <path d="M8.016 3.281l-0.844 0.703-1.453-1.406 0.891-0.703zM16.453 18.375l-9.844-9.844q-1.594 1.969-1.594 4.453 0 2.906 2.039 4.969t4.945 2.063q2.438 0 4.453-1.641zM2.906 2.297q3.563 3.563 10.148 10.125t8.32 8.297l-1.266 1.266-2.203-2.203q-2.578 2.203-5.906 2.203-3.75 0-6.375-2.648t-2.625-6.352q0-1.359 0.656-3.094t1.547-2.766l-0.797-0.797-1.125 0.938-1.406-1.453 1.125-0.891-1.359-1.359zM21.984 5.719l-1.266 1.547-4.594-3.891 1.266-1.5zM12 6q-1.266 0-2.391 0.422l-1.547-1.5q1.969-0.938 3.938-0.938 3.75 0 6.375 2.648t2.625 6.352q0 2.063-0.891 3.938l-1.547-1.5q0.422-1.125 0.422-2.438 0-2.906-2.039-4.945t-4.945-2.039z"></path>
    </symbol>
    <symbol id="icon-alarm_on" viewBox="0 0 24 24">
      <path d="M10.547 14.531l4.922-4.969 1.078 1.078-6 6-3.188-3.188 1.031-1.031zM12 20.016q2.906 0 4.945-2.063t2.039-4.969-2.039-4.945-4.945-2.039-4.945 2.039-2.039 4.945 2.039 4.969 4.945 2.063zM12 3.984q3.75 0 6.375 2.648t2.625 6.352-2.625 6.352-6.375 2.648-6.375-2.648-2.625-6.352 2.625-6.352 6.375-2.648zM7.875 3.375l-4.594 3.844-1.266-1.5 4.594-3.844zM21.984 5.719l-1.266 1.547-4.594-3.891 1.266-1.5z"></path>
    </symbol>
    <symbol id="icon-done" viewBox="0 0 24 24">
      <path d="M9 16.219l10.594-10.641 1.406 1.406-12 12-5.578-5.578 1.359-1.406z"></path>
    </symbol>
    <symbol id="icon-done_all" viewBox="0 0 24 24">
      <path d="M0.422 13.406l1.406-1.406 5.578 5.578-1.406 1.406zM22.219 5.578l1.453 1.406-12 12-5.625-5.578 1.453-1.406 4.172 4.172zM18 6.984l-6.328 6.375-1.406-1.406 6.328-6.375z"></path>
    </symbol>
    <symbol id="icon-exit_to_app" viewBox="0 0 24 24">
      <path d="M18.984 3q0.797 0 1.406 0.609t0.609 1.406v13.969q0 0.797-0.609 1.406t-1.406 0.609h-13.969q-0.844 0-1.43-0.586t-0.586-1.43v-3.984h2.016v3.984h13.969v-13.969h-13.969v3.984h-2.016v-3.984q0-0.844 0.586-1.43t1.43-0.586h13.969zM10.078 15.609l2.578-2.625h-9.656v-1.969h9.656l-2.578-2.625 1.406-1.406 5.016 5.016-5.016 5.016z"></path>
    </symbol>
    <symbol id="icon-perm_contact_calendar" viewBox="0 0 24 24">
      <path d="M18 18v-0.984q0-1.359-2.063-2.227t-3.938-0.867-3.938 0.867-2.063 2.227v0.984h12zM12 6q-1.219 0-2.109 0.891t-0.891 2.109 0.891 2.109 2.109 0.891 2.109-0.891 0.891-2.109-0.891-2.109-2.109-0.891zM18.984 3q0.797 0 1.406 0.609t0.609 1.406v13.969q0 0.797-0.609 1.406t-1.406 0.609h-13.969q-0.844 0-1.43-0.586t-0.586-1.43v-13.969q0-0.844 0.586-1.43t1.43-0.586h0.984v-2.016h2.016v2.016h7.969v-2.016h2.016v2.016h0.984z"></path>
    </symbol>
    <symbol id="icon-search" viewBox="0 0 24 24">
      <path d="M9.516 14.016q1.875 0 3.188-1.313t1.313-3.188-1.313-3.188-3.188-1.313-3.188 1.313-1.313 3.188 1.313 3.188 3.188 1.313zM15.516 14.016l4.969 4.969-1.5 1.5-4.969-4.969v-0.797l-0.281-0.281q-1.781 1.547-4.219 1.547-2.719 0-4.617-1.875t-1.898-4.594 1.898-4.617 4.617-1.898 4.594 1.898 1.875 4.617q0 0.984-0.469 2.227t-1.078 1.992l0.281 0.281h0.797z"></path>
    </symbol>
    <symbol id="icon-settings" viewBox="0 0 24 24">
      <path d="M12 15.516q1.453 0 2.484-1.031t1.031-2.484-1.031-2.484-2.484-1.031-2.484 1.031-1.031 2.484 1.031 2.484 2.484 1.031zM19.453 12.984l2.109 1.641q0.328 0.234 0.094 0.656l-2.016 3.469q-0.188 0.328-0.609 0.188l-2.484-0.984q-0.984 0.703-1.688 0.984l-0.375 2.625q-0.094 0.422-0.469 0.422h-4.031q-0.375 0-0.469-0.422l-0.375-2.625q-0.891-0.375-1.688-0.984l-2.484 0.984q-0.422 0.141-0.609-0.188l-2.016-3.469q-0.234-0.422 0.094-0.656l2.109-1.641q-0.047-0.328-0.047-0.984t0.047-0.984l-2.109-1.641q-0.328-0.234-0.094-0.656l2.016-3.469q0.188-0.328 0.609-0.188l2.484 0.984q0.984-0.703 1.688-0.984l0.375-2.625q0.094-0.422 0.469-0.422h4.031q0.375 0 0.469 0.422l0.375 2.625q0.891 0.375 1.688 0.984l2.484-0.984q0.422-0.141 0.609 0.188l2.016 3.469q0.234 0.422-0.094 0.656l-2.109 1.641q0.047 0.328 0.047 0.984t-0.047 0.984z"></path>
    </symbol>
    <symbol id="icon-supervisor_account" viewBox="0 0 24 24">
      <path d="M9 12.984q1.031 0 2.391 0.281-2.391 1.313-2.391 3.469v2.25h-6.984v-2.484q0-1.078 1.289-1.922t2.836-1.219 2.859-0.375zM16.5 14.016q1.734 0 3.609 0.75t1.875 1.969v2.25h-10.969v-2.25q0-1.219 1.875-1.969t3.609-0.75zM9 11.016q-1.219 0-2.109-0.891t-0.891-2.109 0.891-2.109 2.109-0.891 2.109 0.891 0.891 2.109-0.891 2.109-2.109 0.891zM16.5 12q-1.031 0-1.758-0.727t-0.727-1.758 0.727-1.781 1.758-0.75 1.758 0.75 0.727 1.781-0.727 1.758-1.758 0.727z"></path>
    </symbol>
    <symbol id="icon-date_range" viewBox="0 0 24 24">
      <path d="M18.984 20.016v-11.016h-13.969v11.016h13.969zM18.984 3.984q0.797 0 1.406 0.609t0.609 1.406v14.016q0 0.797-0.609 1.383t-1.406 0.586h-13.969q-0.844 0-1.43-0.563t-0.586-1.406v-14.016q0-0.797 0.586-1.406t1.43-0.609h0.984v-1.969h2.016v1.969h7.969v-1.969h2.016v1.969h0.984zM17.016 11.016v1.969h-2.016v-1.969h2.016zM12.984 11.016v1.969h-1.969v-1.969h1.969zM9 11.016v1.969h-2.016v-1.969h2.016z"></path>
    </symbol>
    <symbol id="icon-check_circle_outline" viewBox="0 0 24 24">
      <path d="M12 20.016q3.281 0 5.648-2.367t2.367-5.648-2.367-5.648-5.648-2.367-5.648 2.367-2.367 5.648 2.367 5.648 5.648 2.367zM12 2.016q4.125 0 7.055 2.93t2.93 7.055-2.93 7.055-7.055 2.93-7.055-2.93-2.93-7.055 2.93-7.055 7.055-2.93zM16.594 7.594l1.406 1.406-8.016 8.016-4.969-5.016 1.406-1.406 3.563 3.563z"></path>
    </symbol>
    <symbol id="icon-delete_outline" viewBox="0 0 24 24">
      <path d="M15.516 3.984h3.469v2.016h-13.969v-2.016h3.469l1.031-0.984h4.969zM8.016 9v9.984h7.969v-9.984h-7.969zM6 18.984v-12h12v12q0 0.797-0.609 1.406t-1.406 0.609h-7.969q-0.797 0-1.406-0.609t-0.609-1.406z"></path>
    </symbol>
    <symbol id="icon-calendar_today" viewBox="0 0 24 24">
      <path d="M20.016 21v-12.984h-16.031v12.984h16.031zM20.016 3q0.797 0 1.383 0.609t0.586 1.406v15.984q0 0.797-0.586 1.406t-1.383 0.609h-16.031q-0.797 0-1.383-0.609t-0.586-1.406v-15.984q0-0.797 0.586-1.406t1.383-0.609h1.031v-2.016h1.969v2.016h10.031v-2.016h1.969v2.016h1.031z"></path>
    </symbol>
    <symbol id="icon-supervised_user_circle" viewBox="0 0 24 24">
      <path d="M12 20.016q2.484 0 4.523-1.43t2.93-3.68q-1.406-1.125-3.844-1.125-1.359 0-2.883 0.586t-1.523 1.523v4.078q0.281 0.047 0.797 0.047zM9.609 15.891q0-1.641 1.875-2.672-1.172-0.234-1.875-0.234-1.266 0-2.859 0.445t-2.297 1.242q0.656 1.781 2.016 3.094t3.141 1.875v-3.75zM9.609 6.75q-0.984 0-1.688 0.703t-0.703 1.688 0.703 1.664 1.688 0.68 1.664-0.68 0.68-1.664-0.68-1.688-1.664-0.703zM15.609 8.344q-0.797 0-1.359 0.563t-0.563 1.359 0.563 1.359 1.359 0.563 1.359-0.563 0.563-1.359-0.563-1.359-1.359-0.563zM12 2.016q4.125 0 7.055 2.93t2.93 7.055-2.93 7.055-7.055 2.93q-4.172 0-7.102-2.93t-2.93-7.055 2.93-7.055 7.102-2.93z"></path>
    </symbol>
    <symbol id="icon-logout" viewBox="0 0 24 24">
      <path d="M3.984 5.016v13.969h8.016v2.016h-8.016q-0.797 0-1.383-0.609t-0.586-1.406v-13.969q0-0.797 0.586-1.406t1.383-0.609h8.016v2.016h-8.016zM17.016 6.984l4.969 5.016-4.969 5.016-1.406-1.453 2.578-2.578h-10.172v-1.969h10.172l-2.578-2.625z"></path>
    </symbol>
  </defs>
</svg>
