<svg xmlns="http://www.w3.org/2000/svg">
  <defs>
    <symbol viewBox="0 0 24 24" id="icon-activity">
      <path d="M12.5 22h-.026a1.501 1.501 0 01-1.413-1.077l-3.155-10.73-.926 5.553A1.5 1.5 0 015.5 17h-4a1.5 1.5 0 110-3h2.729L6.021 3.253a1.5 1.5 0 012.919-.176l3.65 12.412 2.487-7.462A1.5 1.5 0 0116.484 7h.016a1.5 1.5 0 011.413.996L20.057 14H22.5a1.5 1.5 0 110 3H19a1.5 1.5 0 01-1.413-.996l-1.038-2.908-2.626 7.877A1.5 1.5 0 0112.5 22z" opacity=".35"/>
      <path d="M22.5 14h-2.443l-2.144-6.004A1.5 1.5 0 0016.5 7h-.016a1.5 1.5 0 00-1.407 1.026l-2.487 7.462-.451 6.452c.109.027.218.058.335.06h.026a1.5 1.5 0 001.423-1.026l2.626-7.877 1.038 2.908A1.5 1.5 0 0019 17h3.5a1.5 1.5 0 100-3z"/>
    </symbol>
    <symbol viewBox="0 0 24 24" id="icon-dumbbell">
      <path d="M8 9h8v6H8z"/>
      <path d="M19 20h-2a1 1 0 01-1-1V5a1 1 0 011-1h2a1 1 0 011 1v14a1 1 0 01-1 1z" opacity=".35"/>
      <path d="M22 18h-1a1 1 0 01-1-1V7a1 1 0 011-1h1a1 1 0 011 1v10a1 1 0 01-1 1zM3 18H2a1 1 0 01-1-1V7a1 1 0 011-1h1a1 1 0 011 1v10a1 1 0 01-1 1z"/>
      <path d="M5 4h2a1 1 0 011 1v14a1 1 0 01-1 1H5a1 1 0 01-1-1V5a1 1 0 011-1z" opacity=".35"/>
    </symbol>
    <symbol viewBox="0 0 50 50" id="icon-effort">
      <path d="M25.5 4C22.474 4 20 6.474 20 9.5s2.474 5.5 5.5 5.5S31 12.526 31 9.5 28.526 4 25.5 4zm22.5.24c-6.507.937-12.055 4.862-15.209 10.334L28.514 16h-7.356c-1.884 0-3.66.888-4.793 2.395l.051-.063-5.562 6.283a1 1 0 00-.05.063 4.007 4.007 0 00.249 5.103 1 1 0 00.002.002L17 36.23V43c0 1.645 1.355 3 3 3s3-1.355 3-3v-7.875c0-.69-.239-1.361-.676-1.896l-3.52-4.666L24.46 22h4.865a1 1 0 00.317-.05l.627-.21A20.391 20.391 0 0030 25c0 10.558 7.84 19.297 18 20.76v-2.022C38.947 42.293 32 34.453 32 25c0-1.365.147-2.695.422-3.979l3.527-1.175c1.716-.572 2.566-2.606 1.703-4.252a1 1 0 000-.002c-.452-.863-1.27-1.378-2.158-1.524C38.39 9.984 42.85 7.083 48 6.26V4.24zM25.5 6C27.445 6 29 7.555 29 9.5S27.445 13 25.5 13A3.485 3.485 0 0122 9.5C22 7.555 23.555 6 25.5 6zm9.473 10.023c.386.004.748.193.908.498.315.602.023 1.232-.565 1.428L29.162 20H24a1 1 0 00-.758.348l-6.48 7.52a1 1 0 00-.04 1.255l4.028 5.34a1 1 0 00.023.03c.148.18.227.4.227.632V43c0 .563-.437 1-1 1s-1-.437-1-1v-7.162a1 1 0 00-.266-.678l-6.209-6.73-.002-.002a1.986 1.986 0 01-.123-2.541l5.514-6.229a1 1 0 00.05-.062A3.991 3.991 0 0121.159 18h7.518a1 1 0 00.316-.05l5.592-1.866c.128-.043.26-.062.389-.06zM9.493 30.877l-1.179 4.566L2.88 40.88A2.99 2.99 0 002.002 43c0 .768.292 1.536.877 2.121C3.446 45.688 4.198 46 5 46a2.98 2.98 0 002.121-.879l6-6c.365-.365.63-.821.77-1.318l.425-1.535-1.593-1.73-.758 2.73a1.007 1.007 0 01-.258.439l-6 6a1.021 1.021 0 01-1.414 0 1 1 0 010-1.414l5.629-5.629c.126-.126.215-.284.26-.457l.896-3.469-.158-.174.004-.003-.87-.95a5.936 5.936 0 01-.562-.734z"/>
    </symbol>
    <symbol viewBox="0 0 50 50" id="icon-effort-2">
      <path d="M26 4a5 5 0 00-5 5 5 5 0 005 5 5 5 0 005-5 5 5 0 00-5-5zm22 .223c-5.505.792-10.315 3.719-13.576 7.916.353-.087.712-.141 1.074-.141a4.523 4.523 0 014.328 3.266 4.505 4.505 0 01-3.09 5.562l-6.605 1.889C30.049 23.465 30 24.227 30 25c0 10.577 7.827 19.303 18 20.762V4.222zm-12.373 9.814a2.758 2.758 0 00-.953.1L28.15 16h-6.992c-1.875 0-3.666.894-4.742 2.33l-5.74 6.463-.024.041a2.49 2.49 0 00-.021 3.326L18 36.45v6.907c0 1.308.941 2.5 2.242 2.63A2.5 2.5 0 0023 43.5v-8c0-.541-.175-1.063-.496-1.494l-4.541-5.998L24 21h4.432c.279 0 .556-.04.824-.115l6.931-1.98a2.501 2.501 0 001.633-3.337c-.363-.912-1.244-1.463-2.193-1.53zM10.105 30.578l-1.35 5.133-6.023 6.021A2.498 2.498 0 004.5 46c.64 0 1.28-.244 1.768-.732l6.5-6.5c.313-.313.538-.702.65-1.131l.676-2.57-3.989-4.489z"/>
    </symbol>
    <symbol viewBox="0 0 50 50" id="icon-exercise">
      <path d="M45.031 3.5c-2.758 0-5 2.242-5 5s2.242 5 5 5 5-2.242 5-5-2.242-5-5-5zm-17.437.063c-.168 0-.328.007-.469.03L16.75 4.72c-.89.254-3.266.902-2.969 2.812.125 1 1.52 1.469 2.75 1.469.149 0 .293-.02.375-.031l9.719-.188 3.438 2.688-7.75 5.437c-2.098 1.524-3.997 3.512-2.125 6.782l6.906 9.968c-2.489.032-9.133.117-10.625.282-2.387.28-2.75 1.687-2.75 2.5 0 1.242.879 2.5 2.812 2.5h16.094c1.3 0 2.309-.477 2.781-1.282.426-.718.395-1.629-.125-2.562-.715-1.336-5.793-9.055-7-10.938l10.282-6.531c1.523-.969 1.87-2.457.968-4.063-.703-1.304-2.426-3.945-2.468-4-.07-.14-.2-.421-7.876-5.468-.445-.356-1-.532-1.593-.532zM.812 12A1.01 1.01 0 001 14h19c.395.059.785-.117 1-.453a1.009 1.009 0 000-1.094A1.008 1.008 0 0020 12H1a1.502 1.502 0 00-.188 0zm0 5A1.01 1.01 0 001 19h14c.395.059.785-.117 1-.453a1.009 1.009 0 000-1.094A1.008 1.008 0 0015 17H1a1.502 1.502 0 00-.188 0zm39.657 1.656a6.29 6.29 0 01-.844.657l-4.406 2.812.281 1.656c.008.04.016.09.031.125.317.735.73 1.453 1.907 1.594.066-.004 6.906-.406 8.406-.406 2.773-.172 3.277-1.414 3.343-2.157.04-.617-.078-1.078-.374-1.406-.477-.527-1.227-.558-2.032-.593-.176-.008-.367-.016-.562-.032l-5.563-.281zM.812 22A1.01 1.01 0 001 24h14c.395.059.785-.117 1-.453a1.009 1.009 0 000-1.094A1.008 1.008 0 0015 22H1a1.502 1.502 0 00-.188 0zm0 5A1.01 1.01 0 001 29h18c.395.059.785-.117 1-.453a1.009 1.009 0 000-1.094A1.008 1.008 0 0019 27H1a1.502 1.502 0 00-.188 0zm19.032 13.938c-1.512 1.562-3.172 3.277-3.938 4.187-1.367 1.594-1.562 3.16-.531 4.313.453.402.922.562 1.406.562 1.09 0 2.227-.863 3.25-1.781 1.11-.98 4.875-4.719 7.438-7.282z"/>
    </symbol>
    <symbol viewBox="0 0 50 50" id="icon-exercise-2">
      <path d="M27.594 2.969c-.2-.008-.403.004-.594.031-.02.004-.043-.004-.063 0l-10.25 1.094a1.006 1.006 0 00-.156.031c-.742.21-1.535.473-2.218.969-.676.488-1.235 1.43-1.094 2.437.004.016.027.016.031.032.078.496.348.886.656 1.125.317.246.656.394 1 .5a4.944 4.944 0 001.906.218c.028-.004.067.004.094 0l9.438-.219 2.875 2.25-7.188 5.032L22 16.5c-1.156.84-2.2 1.742-2.75 3-.55 1.258-.438 2.82.469 4.406.02.024.039.043.062.063l6.032 8.875c-.942.011-1.54 0-3.22.031-2.655.05-5.421.098-6.5.219-.988.117-1.804.449-2.374 1-.57.55-.813 1.3-.813 2 0 .672.219 1.43.781 2.031.563.602 1.434.969 2.5.969h4.75c-1.59 1.629-3.761 3.89-4.906 5.25-.683.797-1.14 1.605-1.281 2.468-.14.864.102 1.778.688 2.438a.532.532 0 00.093.094c.633.562 1.625.843 2.531.593.907-.25 1.758-.832 2.813-1.78.934-.825 3.234-3.11 5.375-5.25 1.992-1.993 3.543-3.571 3.781-3.813h2.282c1.257 0 2.39-.387 3.062-1.282.664-.886.61-2.164 0-3.28V34.5c-.492-.918-2.16-3.54-3.781-6.094-1.352-2.129-2.227-3.476-2.625-4.093.715-.458 3.101-1.977 5.5-3.5L35 23.875c.023.078.055.148.094.219.164.383.332.781.687 1.156.356.375.91.676 1.5.75a.753.753 0 00.188 0s7.023-.406 8.343-.406h.063c.887-.055 1.691-.211 2.406-.594.715-.383 1.324-1.105 1.407-2v-.031c.03-.524-.028-1.032-.282-1.469-.254-.438-.68-.707-1.062-.844-.77-.27-1.43-.203-2.063-.25h-.031l-5.125-.281-.438-4.719a1.017 1.017 0 00-.187-.5 4.198 4.198 0 00-.531-1.594c-.746-1.386-2.387-3.847-2.469-3.968-.04-.082-.031-.043-.063-.094-.12-.195-.238-.246-.312-.313-.094-.082-.188-.187-.313-.28a27.258 27.258 0 00-.937-.688 155.523 155.523 0 00-2.688-1.844 362.534 362.534 0 00-3.75-2.5c-.03-.023-.062-.04-.093-.063a3.112 3.112 0 00-1.75-.593zM44.5 3A5.503 5.503 0 0039 8.5c0 3.035 2.465 5.5 5.5 5.5S50 11.535 50 8.5 47.535 3 44.5 3zM27.219 5h.031c.387-.066.68-.02.938.188.019.023.039.042.062.062 0 0 1.895 1.234 3.813 2.531.96.649 1.925 1.297 2.656 1.813.363.258.668.496.875.656.105.078.18.152.218.188.02.015-.023-.094-.03-.094 0 0 1.804 2.758 2.437 3.937.355.633.363.98.281 1.25-.082.27-.332.547-.75.813-.281.18-1.652 1.05-2.75 1.75-.254.05-.477.195-.625.406-3.188 2.031-7.313 4.656-7.313 4.656a.999.999 0 00-.312 1.375s1.531 2.38 3.156 4.938c1.625 2.558 3.403 5.406 3.719 6v.031c.375.676.277.922.125 1.125-.152.203-.594.469-1.438.469h-8.468A1.002 1.002 0 0023.28 37a.918.918 0 00-.281.094h-6.813c-.632 0-.867-.168-1.03-.344a.991.991 0 01-.25-.656c0-.301.034-.414.187-.563.152-.148.508-.355 1.219-.437.722-.082 3.699-.168 6.343-.219 2.645-.05 5.063-.063 5.063-.063a.99.99 0 00.87-.539.994.994 0 00-.058-1.023L21.47 22.906c-.008-.011.008-.02 0-.031l-.032-.031c-.648-1.168-.636-1.856-.343-2.532.297-.683 1.062-1.433 2.093-2.187l8.282-5.813a.996.996 0 00.426-.78.99.99 0 00-.364-.813l-4.218-3.313a1.006 1.006 0 00-.625-.218l-9.907.218h-.093a3.548 3.548 0 01-1.188-.125c-.14-.043-.219-.09-.281-.125-.016-.176.011-.242.281-.437.309-.227.89-.438 1.531-.625.016-.004.016-.028.032-.032zM44.5 5A3.46 3.46 0 0148 8.5a3.46 3.46 0 01-3.5 3.5A3.46 3.46 0 0141 8.5 3.46 3.46 0 0144.5 5zM.812 12A1.01 1.01 0 001 14h19c.395.059.785-.117 1-.453a1.009 1.009 0 000-1.094A1.008 1.008 0 0020 12H1a1.502 1.502 0 00-.188 0zm0 5A1.01 1.01 0 001 19h14c.395.059.785-.117 1-.453a1.009 1.009 0 000-1.094A1.008 1.008 0 0015 17H1a1.502 1.502 0 00-.188 0zm38.126.969l.28 3.218c.048.493.446.88.938.907l5.969.312h.031c.746.051 1.38.07 1.532.125-.004-.004.015.063 0 .313-.02.172-.055.25-.344.406-.301.16-.856.293-1.532.344h-.062c-1.7.004-7.934.39-8.219.406-.02-.004-.015.004-.031 0-.16-.023-.188-.059-.25-.125a1.96 1.96 0 01-.281-.438l-.657-3.78c.91-.579 2.27-1.458 2.532-1.626.031-.02.062-.043.093-.062zM.812 22A1.01 1.01 0 001 24h14c.395.059.785-.117 1-.453a1.009 1.009 0 000-1.094A1.008 1.008 0 0015 22H1a1.502 1.502 0 00-.188 0zm0 5A1.01 1.01 0 001 29h18c.395.059.785-.117 1-.453a1.009 1.009 0 000-1.094A1.008 1.008 0 0019 27H1a1.502 1.502 0 00-.188 0zM23.72 39.094h3.468c-.753.761-1.097 1.129-2.343 2.375-2.133 2.133-4.547 4.511-5.313 5.187-.945.852-1.633 1.242-2 1.344-.351.098-.39.05-.625-.156-.152-.203-.207-.371-.156-.688.059-.363.293-.894.813-1.5 1.394-1.656 5.511-5.902 6.156-6.562z"/>
    </symbol>
    <symbol viewBox="0 0 24 24" id="icon-external-distance-maps-locations-those-icons-lineal-those-icons">
      <path d="M9 0C6.794 0 5 1.794 5 4c0 2.043 3.235 6.323 3.604 6.805.004.005.01.008.015.013.033.04.075.071.121.1.016.01.03.023.047.031.003.001.003.005.006.006l.91.414a.498.498 0 00.662-.248.5.5 0 00-.248-.662l-.346-.158C10.72 9.008 13 5.718 13 4c0-2.206-1.794-4-4-4zm0 1c1.654 0 3 1.346 3 3 0 1.273-1.9 4.15-3 5.662C7.9 8.15 6 5.272 6 4c0-1.654 1.346-3 3-3zm0 2c-.551 0-1 .449-1 1 0 .551.449 1 1 1 .551 0 1-.449 1-1 0-.551-.449-1-1-1zm11 2c-2.206 0-4 1.794-4 4 0 1.49 1.717 4.165 2.791 5.693a.485.485 0 00-.156.186.5.5 0 00.209.642.498.498 0 00.486.873l.89-.445.003-.002c.003-.001.005-.004.007-.006a.496.496 0 00.166-.136C20.766 15.323 24 11.043 24 9c0-2.206-1.794-4-4-4zm0 1c1.654 0 3 1.346 3 3 0 1.273-1.9 4.15-3 5.662-1.1-1.512-3-4.39-3-5.662 0-1.654 1.346-3 3-3zm0 2c-.551 0-1 .449-1 1 0 .551.449 1 1 1 .551 0 1-.449 1-1 0-.551-.449-1-1-1zm-8.24 3.248a.5.5 0 00-.22.955l1.835.834a.498.498 0 00.662-.248.5.5 0 00-.248-.662l-1.836-.834a.493.493 0 00-.193-.045zm3.67 1.67a.5.5 0 00-.219.955l1.836.834a.498.498 0 00.662-.248.5.5 0 00-.248-.662l-1.836-.834a.506.506 0 00-.195-.045zM4 13c-2.206 0-4 1.794-4 4 0 2.043 3.235 6.323 3.604 6.805.026.034.063.054.097.08.02.015.036.036.059.049.073.04.154.066.24.066.011 0 .024-.007.035-.008a.5.5 0 00.188-.045h.002l.894-.447a.498.498 0 00.102-.826C6.296 21.143 8 18.484 8 17c0-2.206-1.794-4-4-4zm0 1c1.654 0 3 1.346 3 3 0 1.273-1.9 4.15-3 5.662C2.9 21.15 1 18.272 1 17c0-1.654 1.346-3 3-3zm0 2c-.551 0-1 .449-1 1 0 .551.449 1 1 1 .551 0 1-.449 1-1 0-.551-.449-1-1-1zm13.494.238a.5.5 0 00-.191.051l-1.578.79a.501.501 0 00-.225.671.501.501 0 00.672.223l1.578-.79a.501.501 0 00.225-.671.501.501 0 00-.48-.274zm-3.158 1.578a.5.5 0 00-.191.053l-1.579.79a.5.5 0 10.448.894l1.578-.791a.5.5 0 00-.256-.946zm-3.158 1.58a.498.498 0 00-.192.051l-1.578.79a.501.501 0 00-.224.671.501.501 0 00.671.223l1.579-.79a.501.501 0 00.224-.671.5.5 0 00-.48-.274zM8.02 20.975a.504.504 0 00-.19.052l-1.581.79a.5.5 0 00.447.895l1.58-.792a.498.498 0 00-.256-.945z"/>
    </symbol>
    <symbol viewBox="0 0 520 520" id="icon-external-goals-user-interface-flatart-icons-outline-flatarticons">
      <path d="M125 20c-19.299 0-35 15.701-35 35s15.701 35 35 35 35-15.701 35-35-15.701-35-35-35zm0 20c8.271 0 15 6.729 15 15s-6.729 15-15 15-15-6.729-15-15 6.729-15 15-15zm235 0a10 10 0 000 20 10 10 0 000-20zm95 10c-13.785 0-25 11.215-25 25s11.215 25 25 25 25-11.215 25-25-11.215-25-25-25zm-57.207 19.447a10.003 10.003 0 00-7.291 2.926l-27.773 27.775C332.089 80.401 296.755 70 260 70 155.234 70 70 155.234 70 260c0 104.767 85.234 190 190 190 104.767 0 190-85.233 190-190 0-37.041-10.554-72.605-30.588-103.398l27.658-27.659a10 10 0 00-7.07-17.072h-32.428V79.445a10.003 10.003 0 00-9.779-9.998zM455 70c2.757 0 5 2.243 5 5s-2.243 5-5 5-5-2.243-5-5 2.243-5 5-5zM260 90c31.423 0 61.68 8.494 88.219 24.658-.065.1-3.284 2.831-3.06 7.674l.814 17.705c-24.23-17.414-53.925-27.683-85.975-27.683-81.413 0-147.646 66.235-147.646 147.648s66.233 147.646 147.646 147.646c81.413 0 147.648-66.233 147.648-147.646 0-32.292-10.429-62.19-28.084-86.522 17.972.824 17.653.819 18.01.819 4.622 0 7.219-3.117 7.346-3.203C421.358 197.796 430 228.292 430 260c0 93.738-76.262 170-170 170S90 353.738 90 260 166.262 90 260 90zm127.572 13.586v14.143c-7.706 7.706-8.404 8.407-21.61 21.61l-.622-13.519 22.232-22.234zM90 110a10 10 0 000 20 10 10 0 000-20zm311.715 21.871h14.142l-22.234 22.234-13.518-.623 21.61-21.61zM260 132.354c31.459 0 60.291 11.444 82.566 30.382l-15.859 15.86c-18.175-14.92-41.412-23.89-66.707-23.89-58.059 0-105.295 47.235-105.295 105.294 0 58.06 47.236 105.295 105.295 105.295 58.06 0 105.295-47.235 105.295-105.295 0-25.578-9.172-49.051-24.393-67.314l15.854-15.854c19.243 22.355 30.892 51.426 30.892 83.168 0 70.385-57.262 127.646-127.646 127.646S132.354 330.385 132.354 260c0-70.385 57.261-127.646 127.646-127.646zM460 170a10 10 0 000 20 10 10 0 000-20zm-200 4.705c19.777 0 37.989 6.785 52.473 18.125l-15.953 15.953c-10.307-7.37-22.911-11.724-36.52-11.724-34.706 0-62.941 28.233-62.941 62.939s28.235 62.941 62.941 62.941 62.941-28.235 62.941-62.941c0-13.894-4.532-26.742-12.187-37.166l15.928-15.928c11.634 14.581 18.611 33.033 18.611 53.094 0 47.031-38.264 85.295-85.295 85.295-47.03 0-85.293-38.262-85.293-85.293 0-47.031 38.264-85.295 85.295-85.295zm0 42.354a42.681 42.681 0 0122.104 6.14l-29.452 29.453c-3.905 3.905-3.905 10.237 0 14.143 3.906 3.905 10.236 3.904 14.143 0l29.578-29.578A42.683 42.683 0 01302.941 260c0 23.678-19.264 42.941-42.941 42.941-23.677 0-42.941-19.263-42.941-42.941s19.264-42.941 42.941-42.941zM450 370a10 10 0 000 20 10 10 0 000-20zM70 380c-16.542 0-30 13.458-30 30s13.458 30 30 30 30-13.458 30-30-13.458-30-30-30zm0 20c5.514 0 10 4.486 10 10s-4.486 10-10 10-10-4.486-10-10 4.486-10 10-10zm90 50a10 10 0 000 20 10 10 0 000-20zm240 0a10 10 0 000 20 10 10 0 000-20z"/>
    </symbol>
    <symbol viewBox="0 0 520 520" id="icon-external-goals-user-interface-flatart-icons-solid-flatarticons">
      <path d="M125 37.5c-16.542 0-30 13.458-30 30s13.458 30 30 30 30-13.458 30-30-13.458-30-30-30zm235 15a10 10 0 000 20 10 10 0 000-20zm95 15c-11.028 0-20 8.972-20 20s8.972 20 20 20 20-8.972 20-20-8.972-20-20-20zm-195 30c-96.495 0-175 78.505-175 175s78.505 175 175 175 175-78.505 175-175c0-34.764-10.089-68.114-29.223-96.836l-4.67 4.668a5.002 5.002 0 01-3.763 1.461l-28.438-1.31c21.035 24.856 33.74 56.979 33.74 92.017 0 78.656-63.99 142.646-142.646 142.646-78.656 0-142.646-63.99-142.646-142.646 0-78.656 63.99-142.646 142.646-142.646 34.779 0 66.686 12.517 91.467 33.275l-1.315-28.527a5.007 5.007 0 011.461-3.766l4.559-4.557C327.6 107.435 294.479 97.5 260 97.5zm132.572 6.518l-32.328 32.328 1.244 27.04 31.084-31.085v-28.283zM90 122.5a10 10 0 000 20 10 10 0 000-20zm309.645 16.871l-31.084 31.086 27.039 1.244 32.33-32.33h-28.285zM260 139.854c-73.142 0-132.646 59.504-132.646 132.646S186.858 405.146 260 405.146 392.646 345.642 392.646 272.5c0-34.917-13.567-66.72-35.699-90.432l-22.88 22.88c16.281 17.836 26.228 41.555 26.228 67.552 0 55.303-44.992 100.295-100.295 100.295-55.302 0-100.295-44.992-100.295-100.295 0-55.302 44.993-100.295 100.295-100.295 25.716 0 49.198 9.732 66.969 25.701l22.888-22.888c-23.65-21.816-55.222-35.164-89.857-35.164zm0 42.351c-49.788 0-90.295 40.507-90.295 90.295 0 49.788 40.507 90.295 90.295 90.295 49.788 0 90.295-40.507 90.295-90.295 0-23.24-8.829-44.456-23.305-60.475l-22.92 22.92c8.64 10.123 13.871 23.235 13.871 37.555 0 31.949-25.992 57.941-57.941 57.941s-57.941-25.992-57.941-57.941S228.05 214.559 260 214.559c14.037 0 26.923 5.02 36.96 13.355l22.929-22.926c-15.95-14.165-36.931-22.783-59.889-22.783zm200 .295a10 10 0 000 20 10 10 0 000-20zm-200 42.059c-26.435 0-47.941 21.504-47.941 47.939s21.506 47.941 47.941 47.941c26.435 0 47.941-21.507 47.941-47.941 0-11.562-4.114-22.18-10.955-30.469l-33.728 33.729a4.982 4.982 0 01-3.535 1.465 4.998 4.998 0 01-3.537-8.535l33.664-33.663c-8.196-6.542-18.571-10.466-29.85-10.466zM450 382.5a10 10 0 000 20 10 10 0 000-20zm-380 15c-13.785 0-25 11.215-25 25s11.215 25 25 25 25-11.215 25-25-11.215-25-25-25zm90 65a10 10 0 000 20 10 10 0 000-20zm240 0a10 10 0 000 20 10 10 0 000-20z"/>
    </symbol>
    <symbol viewBox="0 0 50 50" id="icon-flex-biceps">
      <path d="M9.594 4.008a5.307 5.307 0 00-.91.045C6.326 4.368 4.44 6.149 3.109 7.44a1 1 0 00-.002 0C1.1 9.393.001 11.82.004 15.5c0 .693.01 1.442.064 2.248.218 3.264.487 9.601 3.643 17.912a1 1 0 000 .002c1.106 2.912 3.16 5.422 5.074 7.242.957.91 1.878 1.646 2.656 2.17.39.263.741.472 1.063.63.322.156.558.296 1.033.296.819 0 1.402-.312 2.123-.55.721-.24 1.507-.45 2.34-.45 1.52 0 3.702 1 8 1 6.273 0 10.36-3.511 12.75-6.928 2.085-2.98 2.844-5.577 3.04-6.289.628-.188 2.063-.664 3.794-1.908C47.751 29.317 50 26.605 50 22.5c0-2.923-.9-5.77-2.682-7.924C45.537 12.422 42.838 11 39.5 11c-3.796 0-6.73 1.364-8.656 3.445-1.811 1.958-2.657 4.514-2.76 7.076C27.397 21.266 26.59 21 25.5 21c-4.355 0-6.924 2.044-8.174 4.314-.446.812-.611 1.595-.808 2.372-.881-1.67-2.035-3.456-4.131-5.399-2.697-2.498-3.698-5.056-4.082-6.03a1 1 0 000-.001c.054.137-.097-.347-.176-.688-.04-.17-.077-.34-.102-.466-.006-.035-.004.008-.007-.028.05-.048.15-.132.324-.246.08-.053.21-.205.308-.265.54.81 1.31 1.437 2.346 1.437.409 0 .831-.076 1.315-.287.241-.106.496-.247.734-.494.03-.032.03-.103.058-.139.41-.088.773-.266 1.086-.521.26-.212.5-.476.666-.83.018-.037-.005-.096.01-.135.433-.17.806-.437 1.033-.754.244-.34.387-.717.452-1.121.045-.036.116-.03.156-.07.267-.272.39-.591.447-.862a2.522 2.522 0 00-.062-1.289c-.434-1.5-1.56-2.33-2.995-3.353-.646-.462-1.252-1.035-2.07-1.5a4.867 4.867 0 00-2.234-.637zm-.059 1.988c.527.01.898.155 1.305.387.543.309 1.12.834 1.896 1.388 1.418 1.013 1.998 1.465 2.235 2.282.009.033.008.086.013.152a1 1 0 00-.574 1.186c-.043-.156-.035.142-.137.285-.047.066-.055.085-.054.094a1 1 0 00-1.205 1.144c-.017.023-.033.05-.086.094-.148.12-.439.073-.145.16a1 1 0 00-1.25.701 1 1 0 000 .002l-.021.01c-.16.07-.49.119-.514.119-.605 0-.998-.394-.998-1a1 1 0 00-1.84-.543c-.086.133-.444.387-.918.7-.237.155-.5.333-.754.616C6.235 14.057 6 14.505 6 15c0 .324.033.33.064.488.032.16.072.345.116.532.086.373.123.616.265.974.382.966 1.562 3.961 4.582 6.76 3.13 2.9 4.133 5.361 5.045 7.621A1 1 0 0018 31c0-.87.11-2.96 1.08-4.72.97-1.762 2.65-3.28 6.42-3.28 1.954 0 2.875.781 2.875.781A1 1 0 0030 23v-1c0-2.275.77-4.527 2.313-6.195C33.855 14.136 36.17 13 39.5 13c2.787 0 4.838 1.113 6.275 2.852C47.213 17.59 48 19.992 48 22.5c0 3.394-1.751 5.433-3.584 6.75-1.833 1.317-3.658 1.78-3.658 1.78a1 1 0 00-.729.732s-.76 3.082-2.918 6.166C34.955 41.01 31.54 44 26 44c-3.976 0-5.77-1-8-1-1.167 0-2.175.29-2.967.55-.761.252-1.342.419-1.44.432-.045-.012-.12-.031-.212-.076a7.326 7.326 0 01-.822-.49c-.666-.449-1.517-1.123-2.397-1.96-1.76-1.676-3.635-4.013-4.582-6.505-3.05-8.033-3.293-14.01-3.516-17.336a1 1 0 000-.002 31.19 31.19 0 01-.06-2.113c-.003-3.32.785-4.96 2.498-6.625 1.268-1.231 3.02-2.649 4.447-2.84.217-.029.41-.042.586-.039z"/>
    </symbol>
    <symbol viewBox="0 0 50 50" id="icon-flex-biceps-2">
      <path d="M39.5 11c-7.56 0-11.177 5.218-11.476 10.309-.775-.173-1.651-.309-2.524-.309-5.373 0-8.163 2.843-9.511 5.623-.83-1.349-1.958-2.812-3.602-4.336a15.8 15.8 0 01-4.077-6.019c-.06-.169-.242-.941-.296-1.199.106-.1.341-.25.504-.354l.004-.003A2.973 2.973 0 0010.999 16c.734 0 1.682-.291 2.173-.919.49-.128.947-.421 1.255-.739.209-.216.366-.452.469-.697.271-.104.525-.274.75-.503.369-.376.619-.87.714-1.362.122-.095.229-.209.32-.339.507-.73.291-1.672.213-1.943-.443-1.533-1.569-2.337-2.994-3.354-.251-.18-.485-.363-.715-.544-1.098-.861-2.348-1.835-4.499-1.548-2.145.288-4.107 1.962-5.578 3.389C.929 9.559 0 11.969.002 15.501c.001.595.009 1.387.066 2.246l.035.538c.229 3.55.613 9.49 3.608 17.376C5.855 41.304 11.922 46 13.537 46c.516 0 1.06-.187 1.689-.403C16.041 45.316 16.963 45 18 45c.65 0 1.354.147 2.246.334 1.416.297 3.178.666 5.754.666 11.001 0 15.002-10.63 15.81-13.206C43.75 32.13 50 29.45 50 22.5 50 16.785 46.394 11 39.5 11z"/>
    </symbol>
    <symbol viewBox="0 0 50 50" id="icon-marker">
      <path d="M25 1C16.16 1 9 8.16 9 17c0 7.309 3.86 15.164 7.656 21.25 3.797 6.086 7.594 10.406 7.594 10.406.191.215.465.34.75.34s.559-.125.75-.34c0 0 3.8-4.41 7.594-10.531C37.137 32.004 41 24.168 41 17c0-8.84-7.16-16-16-16zm0 2c7.762 0 14 6.238 14 14 0 6.434-3.637 14.082-7.344 20.063-3.105 5.011-5.734 8.238-6.656 9.343-.93-1.097-3.559-4.254-6.656-9.218C14.64 31.25 11 23.59 11 17c0-7.762 6.238-14 14-14zm0 8c-3.855 0-7 3.145-7 7s3.145 7 7 7 7-3.145 7-7-3.145-7-7-7zm0 2c2.773 0 5 2.227 5 5s-2.227 5-5 5-5-2.227-5-5 2.227-5 5-5z"/>
    </symbol>
    <symbol viewBox="0 0 50 50" id="icon-marker-2">
      <path d="M25 1C16.18 1 9 8.18 9 17c0 14.113 14.629 30.945 15.25 31.656.191.219.46.344.75.344.309-.02.559-.125.75-.344C26.371 47.934 41 30.813 41 17c0-8.82-7.18-16-16-16zm0 11c3.313 0 6 2.688 6 6 0 3.313-2.688 6-6 6-3.313 0-6-2.688-6-6 0-3.313 2.688-6 6-6z"/>
    </symbol>
    <symbol viewBox="0 0 80 80" id="icon-pushups">
      <path d="M13 19c-3.854 0-7 3.146-7 7s3.146 7 7 7 7-3.146 7-7-3.146-7-7-7zm0 2c2.773 0 5 2.227 5 5s-2.227 5-5 5-5-2.227-5-5 2.227-5 5-5zm13.5 4c-3.578 0-6.5 2.922-6.5 6.5 0 .916.198 1.786.54 2.574l4.023 11.428-4.612 5.887a1 1 0 00-.18.359C19.32 52.391 19 53.147 19 54c0 2.197 1.803 4 4 4 1.17 0 2.17-.569 2.9-1.373a1 1 0 00.332-.28l.028-.036a1 1 0 00.017-.022.298.298 0 01.016-.023l5.775-7.711a1 1 0 00.143-.268C32.676 47.64 33 46.868 33 46c0-.586-.132-1.138-.352-1.629l.03.076-1.201-3.43 11.57 3.797L67.31 57.428a1 1 0 00.492.111c.53.229 1.07.461 1.697.461 2.473 0 4.5-2.027 4.5-4.5 0-1.56-.882-2.843-2.092-3.646l-.002-.002a1 1 0 00-.375-.364l-19.07-10.572c-.21-.71-1.215-3.796-4.707-5.225a1 1 0 000-.002c-3.102-1.268-17.53-7.603-18.05-7.832A6.457 6.457 0 0026.5 25zm0 2c.84 0 1.616.231 2.291.633a1 1 0 00.11.056c.51.224 14.85 6.524 18.097 7.852 2.894 1.184 3.736 4.346 3.736 4.346a1 1 0 00.485.627L69.725 50.77l.423-.847a1 1 0 00.45 1.344A2.48 2.48 0 0172 53.5c0 1.393-1.107 2.5-2.5 2.5-.44 0-.847-.123-1.229-.34a1 1 0 00-.189-.084L43.896 43.002a1 1 0 00-.15-.063l-13.103-4.3-1.278-3.645a1 1 0 00-1.002-.681 1 1 0 00-.886 1.343l1.433 4.086a1 1 0 00.008.024l.64 1.83a1 1 0 00.006.015l1.227 3.498a1 1 0 00.031.077c.115.257.178.528.178.814 0 .492-.182.93-.49 1.29a1 1 0 00-.217.439l.033-.186-5.633 7.523.446-.587.742.369a1 1 0 00-1.194.228 1 1 0 00-.007.01 1 1 0 00-.043.064c.043-.07.061-.095.011-.025a1 1 0 00-.027.035c-.366.51-.946.84-1.621.84-1.117 0-2-.883-2-2 0-.504.189-.952.51-1.316a1 1 0 00.158-.245l4.807-6.134a1 1 0 00.156-.95l-4.207-11.949a1 1 0 00-.031-.076A4.458 4.458 0 0122 31.5c0-2.498 2.002-4.5 4.5-4.5zM12 56a1 1 0 00-1 1 1 1 0 001 1 1 1 0 001-1 1 1 0 00-1-1zm4 0a1 1 0 00-1 1 1 1 0 001 1 1 1 0 001-1 1 1 0 00-1-1zm13 0a1 1 0 00-1 1 1 1 0 001 1 1 1 0 001-1 1 1 0 00-1-1zm4 0a1 1 0 00-1 1 1 1 0 001 1 1 1 0 001-1 1 1 0 00-1-1zm4 0a1 1 0 00-1 1 1 1 0 001 1 1 1 0 001-1 1 1 0 00-1-1zm4 0a1 1 0 00-1 1 1 1 0 001 1 1 1 0 001-1 1 1 0 00-1-1zm4 0a1 1 0 00-1 1 1 1 0 001 1 1 1 0 001-1 1 1 0 00-1-1zm4 0a1 1 0 00-1 1 1 1 0 001 1 1 1 0 001-1 1 1 0 00-1-1zm4 0a1 1 0 00-1 1 1 1 0 001 1 1 1 0 001-1 1 1 0 00-1-1zm4 0a1 1 0 00-1 1 1 1 0 001 1 1 1 0 001-1 1 1 0 00-1-1zm4 0a1 1 0 00-1 1 1 1 0 001 1 1 1 0 001-1 1 1 0 00-1-1zm15 0a1 1 0 00-1 1 1 1 0 001 1 1 1 0 001-1 1 1 0 00-1-1z"/>
    </symbol>
    <symbol viewBox="0 0 50 50" id="icon-pushups-2">
      <path d="M5 10a5 5 0 100 10 5 5 0 000-10zm9.219 4.406c-1.383 0-2.696.836-3.219 2.188l-.688 2.312c-.3.801-.3 1.7 0 2.5l2.282 6.282-3.656 5.28c-.602.802-.493 2.024.406 2.626.3.3.695.375 1.094.375.601 0 1.101-.29 1.5-.688l4.562-5.968c.297-.372.441-.81.406-1.25a.998.998 0 01-.093-.22L15.5 22.75a1 1 0 011.938-.5l1.062 4.125 9.563 2.563 18.5 6.937c1.199.398 2.687-.426 3.187-1.625.5-1.2.371-3.063-1.281-3.75L15.594 14.687a3.36 3.36 0 00-1.375-.28zM0 36v2h50v-2z"/>
    </symbol>
    <symbol viewBox="0 0 30 30" id="icon-sit-ups">
      <path d="M6 5a3 3 0 102.135 5.105l1.865.622-2.492 1.671-.004.016A2.985 2.985 0 006 15c0 .545.156 1.05.41 1.49l-.004.018 3.932 6.875.016.002A2.987 2.987 0 0013 25a2.98 2.98 0 002.223-1.002l.013.002 3.934-4.775 5.006 5.343.002.002a1 1 0 00.857.43 1 1 0 00.787-1.57L20.57 15.86c-.61-.88-1.819-1.054-2.675-.52l-.006-.007-.067.049c-.05.035-.099.071-.146.111L14.336 18l-2.691-4.414 2.101-2.918.035-.043a1 1 0 00.076-.111 1 1 0 00.002-.002 1 1 0 00-.617-1.483L8.996 7.97A2.997 2.997 0 006 5zm19.035 20H4a1 1 0 100 2h22a1 1 0 100-2h-.965z"/>
    </symbol>
    <symbol viewBox="0 0 50 50" id="icon-skipping-rope">
      <path d="M25 1a4.505 4.505 0 00-4.5 4.5c0 2.481 2.019 4.5 4.5 4.5s4.5-2.019 4.5-4.5S27.481 1 25 1zm-3.588 11c-1.608 0-3.132.7-4.178 1.922l-8.332 9.724A1.965 1.965 0 008.432 25H7.008a1 1 0 00-1 .982c-.002.091-.008.204-.008.344C6 39.277 14.378 50 25 50s19-10.723 19-23.674c0-.14-.006-.253-.008-.344a1 1 0 00-1-.982h-1.424a1.957 1.957 0 00-.466-1.352l-8.34-9.73A5.493 5.493 0 0028.588 12h-7.176zm9.248 7.254l7.608 7.15c.339.32.777.498 1.24.518a1 1 0 00.4.078h2.037C41.657 38.765 34.083 48 25 48S8.343 38.765 8.055 27h2.218a1 1 0 00.532-.145c.353-.068.69-.225.959-.478l7.57-7.117.627 24.71A2.072 2.072 0 0022.045 46a2.096 2.096 0 002.076-1.908l.961-11.291.754 6.334a2.115 2.115 0 002.1 1.865c1.149 0 2.077-.9 2.113-2.049l.611-19.697z"/>
    </symbol>
    <symbol viewBox="0 0 50 50" id="icon-stretching">
      <path d="M18 3c-1.583 0-2.898.63-3.748 1.586C13.402 5.542 13 6.778 13 8s.402 2.458 1.252 3.414S16.417 13 18 13c1.583 0 2.898-.63 3.748-1.586C22.598 10.458 23 9.222 23 8s-.402-2.458-1.252-3.414S19.583 3 18 3zm0 2c1.083 0 1.769.37 2.252.914C20.735 6.458 21 7.222 21 8c0 .778-.265 1.542-.748 2.086-.483.544-1.169.914-2.252.914-1.083 0-1.769-.37-2.252-.914C15.265 9.542 15 8.778 15 8c0-.778.265-1.542.748-2.086C16.231 5.37 16.917 5 18 5zm5 9c-1.171 0-2.257.312-3.113.973-.857.66-1.444 1.642-1.737 2.814-.988 3.953-.609 7.769.163 11.213H14.5a3.515 3.515 0 00-3.5 3.5v12c0 1.921 1.579 3.5 3.5 3.5s3.5-1.579 3.5-3.5V36h2.98a88.643 88.643 0 002.229 3.52c1.7 2.574 3.287 4.763 3.287 4.763l-.068-.107a3.503 3.503 0 002.386 1.756l10 2c.23.046.46.068.688.068A3.523 3.523 0 0043 44.58c.05-1.755-1.259-3.2-2.916-3.531l-8.424-1.924-3.27-5.97a4.863 4.863 0 00.485-2.419c.367.15.745.266 1.123.266a1 1 0 00.002 0 3.012 3.012 0 002.758-1.82l3-7a3.013 3.013 0 00-1.54-3.922l-7.572-3.586A7.006 7.006 0 0023.65 14H23zm0 2h.65c.74 0 1.472.164 2.141.48l7.594 3.596a1 1 0 00.021.012c.51.226.732.793.512 1.307l-3 7a.995.995 0 01-1.361.501c-.457-.225-.657-.867-.424-1.41l2.17-5.066a1 1 0 00-.512-1.309l-3.59-1.593a1 1 0 00-1.387.72c-.63 3.225.236 6.598 1.096 10.035a2.958 2.958 0 01-.441 2.405 1 1 0 00-.05 1.04l3.704 6.762a1 1 0 00.654.495l8.889 2.029a1 1 0 00.027.006c.76.151 1.33.806 1.309 1.513a1.484 1.484 0 01-1.5 1.477c-.096 0-.195-.01-.295-.03l-10-2a1 1 0 00-.002 0 1.497 1.497 0 01-1.021-.753 1 1 0 00-.069-.108s-1.566-2.16-3.238-4.691c-1.672-2.532-3.464-5.581-3.797-6.729a59.748 59.748 0 01-.492-1.804 1 1 0 000-.002 1 1 0 00-.055-.225c-.899-3.573-1.428-7.446-.443-11.385a1 1 0 000-.002c.207-.83.559-1.36 1.017-1.714.46-.354 1.064-.557 1.893-.557zm4.785 5.965l1.291.574-1.187 2.768c-.195-1.197-.161-2.278-.104-3.342zM14.5 31h4.313c.113.421.229.841.347 1.248.15.519.41 1.117.723 1.752H17a1 1 0 00-1 1v9.5c0 .84-.66 1.5-1.5 1.5s-1.5-.66-1.5-1.5v-12c0-.84.66-1.5 1.5-1.5z"/>
    </symbol>
    <symbol viewBox="0 0 64 64" id="icon-timer">
      <path d="M32 6v11h3l1.797-6.469C46.639 12.721 54 21.498 54 32c0 12.15-9.85 22-22 22s-22-9.85-22-22c0-6.346 2.69-12.06 6.988-16.074l-3.027-2.639C9.056 18.017 6 24.65 6 32c0 14.359 11.641 26 26 26s26-11.641 26-26S46.359 6 32 6zM20.979 19.564l-1.415 1.415 8.493 10.353A4 4 0 0032 36a4 4 0 000-8 4 4 0 00-.664.06l-10.357-8.496z"/>
    </symbol>
    <symbol viewBox="0 0 50 50" id="icon-trekking">
      <path d="M26.5 2c-1.75 0-3.19.692-4.123 1.742C21.444 4.792 21 6.152 21 7.5c0 1.347.444 2.708 1.377 3.758C23.31 12.308 24.75 13 26.5 13s3.19-.692 4.123-1.742C31.556 10.208 32 8.848 32 7.5c0-1.347-.444-2.708-1.377-3.758C29.69 2.692 28.25 2 26.5 2zm0 2c1.25 0 2.06.433 2.627 1.07.567.638.873 1.527.873 2.43 0 .903-.306 1.792-.873 2.43C28.56 10.567 27.75 11 26.5 11c-1.25 0-2.06-.433-2.627-1.07C23.306 9.292 23 8.403 23 7.5c0-.903.306-1.792.873-2.43C24.44 4.433 25.25 4 26.5 4zM17 12a3 3 0 00-2.227 1.002l-6.375 6.861a1 1 0 00-.017.022A5.476 5.476 0 007 23.5c0 3.026 2.474 5.5 5.5 5.5 1.006 0 1.925-.324 2.734-.8.033.76.185 1.505.493 2.177l-1.918 6.154-4.07 5.824a1 1 0 00-.18.592c-.26.485-.559.96-.559 1.553 0 1.921 1.579 3.5 3.5 3.5 1.086 0 1.99-.567 2.629-1.346a1 1 0 00.346-.318l4.517-6.8a1 1 0 00.106-.21l1.312-3.574L24 37.961v6.396c0 1.788 1.29 3.44 3.145 3.625C29.209 48.188 31 46.54 31 44.5V35c0-.835-.348-1.6-.902-2.143l-4.98-5.14 1.446-5.17 3.596 2.805a3.004 3.004 0 003.203.31L36 24.328V47a1 1 0 102 0V23.314l1.377-.697c1.534-.776 2.085-2.734 1.185-4.199-.557-.909-1.549-1.229-2.562-1.22v-3.9a1 1 0 10-2 0v4.356l-3.824 1.825-5.166-4.704a3.004 3.004 0 00-1.295-.693l-3.986-.992c-.841-.21-1.663 0-2.34.445C18.859 12.674 18.076 12 17 12zm0 2c.565 0 1 .435 1 1v.639l-2.367 9.384a1 1 0 00-.006.014C15.054 26.2 13.883 27 12.5 27A3.485 3.485 0 019 23.5c0-.88.334-1.668.883-2.293v-.002l6.367-6.855a1 1 0 00.012-.014A.971.971 0 0117 14zm3.846 1.01c.128-.02.263-.013.4.021l3.984.992c.16.04.31.12.432.23l5.664 5.157a1 1 0 001.104.164l5.19-2.476a.957.957 0 011.24.367.949.949 0 01-.387 1.367l-6.014 3.047a1 1 0 00-.002 0 .994.994 0 01-1.066-.104l-4.774-3.724a1 1 0 00-1.578.52l-2.002 7.16a1 1 0 00.244.964l5.399 5.573a1 1 0 00.02.02c.187.183.3.427.3.712v9.5a1.48 1.48 0 01-1.658 1.492c-.749-.075-1.342-.806-1.342-1.635V37.5a1 1 0 00-.352-.76l-3.824-3.263a1 1 0 00-.441-.377l-3.291-2.809a2.997 2.997 0 01-.963-3.016l2.904-11.517v-.002a.986.986 0 01.813-.746zm-3.594 17.195l2.535 2.162-1.525 4.158-3.924 5.909.814.488a1 1 0 00-1.373.344c-.264.442-.729.734-1.279.734-.84 0-1.5-.66-1.5-1.5 0-.353.123-.666.342-.936a1 1 0 00.115-.177l4.08-5.836a1 1 0 00.135-.276l1.58-5.07z"/>
    </symbol>
    <symbol viewBox="0 0 50 50" id="icon-trekking-2">
      <path d="M27 2a5 5 0 100 10 5 5 0 000-10zM17 12c-.758 0-1.492.293-2.047.816-.07.047-.133.098-.191.16l-6.38 6.88c-.05.054-.093.117-.132.183A5.465 5.465 0 007 23.5c0 3.031 2.469 5.5 5.5 5.5a5.47 5.47 0 001.559-.227A5.633 5.633 0 0114 28c0-.664.113-1.324.34-1.969l2.746-10.847a4.042 4.042 0 011.742-2.543A2.969 2.969 0 0017 12zm19.984.285A.999.999 0 0036 13.297v5.469l-4 1.906-5.594-5.094a1.99 1.99 0 00-.972-.531l-.008-.004-3.899-.973-.004.004A1.842 1.842 0 0021 14a2 2 0 00-1.965 1.629l-2.758 10.89.004.016A4.018 4.018 0 0016 28c0 1.285.621 2.488 1.66 3.238L25 37.5v8c0 1.379 1.121 2.5 2.5 2.5s2.5-1.121 2.5-2.5V35c0-.54-.219-1.05-.602-1.426l-.003-.008L24 28l2-7.16 4.61 3.594a1.989 1.989 0 002.328.332h.003L36 23.21V47c-.004.36.184.695.496.879.313.18.695.18 1.008 0 .312-.184.5-.52.496-.879V22.195l.52-.265A1.999 1.999 0 0038 18v-4.703a1.003 1.003 0 00-1.016-1.012zM15.57 32.031l-1.851 5.946-4.164 5.949.008.008c-.348.43-.563.968-.563 1.566a2.493 2.493 0 004.637 1.281h.004l4.515-6.8 1.598-4.352z"/>
    </symbol>
  </defs>
</svg>