<svg xmlns="http://www.w3.org/2000/svg">
  <defs>
    <symbol viewBox="0 0 24 24" id="icon-activity">
      <path d="M12.5 22h-.026a1.501 1.501 0 01-1.413-1.077l-3.155-10.73-.926 5.553A1.5 1.5 0 015.5 17h-4a1.5 1.5 0 110-3h2.729L6.021 3.253a1.5 1.5 0 012.919-.176l3.65 12.412 2.487-7.462A1.5 1.5 0 0116.484 7h.016a1.5 1.5 0 011.413.996L20.057 14H22.5a1.5 1.5 0 110 3H19a1.5 1.5 0 01-1.413-.996l-1.038-2.908-2.626 7.877A1.5 1.5 0 0112.5 22z" opacity=".35"/>
      <path d="M22.5 14h-2.443l-2.144-6.004A1.5 1.5 0 0016.5 7h-.016a1.5 1.5 0 00-1.407 1.026l-2.487 7.462-.451 6.452c.109.027.218.058.335.06h.026a1.5 1.5 0 001.423-1.026l2.626-7.877 1.038 2.908A1.5 1.5 0 0019 17h3.5a1.5 1.5 0 100-3z"/>
    </symbol>
    <symbol viewBox="0 0 24 24" id="icon-dumbbell">
      <path d="M8 9h8v6H8z"/>
      <path d="M19 20h-2a1 1 0 01-1-1V5a1 1 0 011-1h2a1 1 0 011 1v14a1 1 0 01-1 1z" opacity=".35"/>
      <path d="M22 18h-1a1 1 0 01-1-1V7a1 1 0 011-1h1a1 1 0 011 1v10a1 1 0 01-1 1zM3 18H2a1 1 0 01-1-1V7a1 1 0 011-1h1a1 1 0 011 1v10a1 1 0 01-1 1z"/>
      <path d="M5 4h2a1 1 0 011 1v14a1 1 0 01-1 1H5a1 1 0 01-1-1V5a1 1 0 011-1z" opacity=".35"/>
    </symbol>
    <symbol viewBox="0 0 50 50" id="icon-effort">
      <path d="M25.5 4C22.474 4 20 6.474 20 9.5s2.474 5.5 5.5 5.5S31 12.526 31 9.5 28.526 4 25.5 4zm22.5.24c-6.507.937-12.055 4.862-15.209 10.334L28.514 16h-7.356c-1.884 0-3.66.888-4.793 2.395l.051-.063-5.562 6.283a1 1 0 00-.05.063 4.007 4.007 0 00.249 5.103 1 1 0 00.002.002L17 36.23V43c0 1.645 1.355 3 3 3s3-1.355 3-3v-7.875c0-.69-.239-1.361-.676-1.896l-3.52-4.666L24.46 22h4.865a1 1 0 00.317-.05l.627-.21A20.391 20.391 0 0030 25c0 10.558 7.84 19.297 18 20.76v-2.022C38.947 42.293 32 34.453 32 25c0-1.365.147-2.695.422-3.979l3.527-1.175c1.716-.572 2.566-2.606 1.703-4.252a1 1 0 000-.002c-.452-.863-1.27-1.378-2.158-1.524C38.39 9.984 42.85 7.083 48 6.26V4.24zM25.5 6C27.445 6 29 7.555 29 9.5S27.445 13 25.5 13A3.485 3.485 0 0122 9.5C22 7.555 23.555 6 25.5 6zm9.473 10.023c.386.004.748.193.908.498.315.602.023 1.232-.565 1.428L29.162 20H24a1 1 0 00-.758.348l-6.48 7.52a1 1 0 00-.04 1.255l4.028 5.34a1 1 0 00.023.03c.148.18.227.4.227.632V43c0 .563-.437 1-1 1s-1-.437-1-1v-7.162a1 1 0 00-.266-.678l-6.209-6.73-.002-.002a1.986 1.986 0 01-.123-2.541l5.514-6.229a1 1 0 00.05-.062A3.991 3.991 0 0121.159 18h7.518a1 1 0 00.316-.05l5.592-1.866c.128-.043.26-.062.389-.06zM9.493 30.877l-1.179 4.566L2.88 40.88A2.99 2.99 0 002.002 43c0 .768.292 1.536.877 2.121C3.446 45.688 4.198 46 5 46a2.98 2.98 0 002.121-.879l6-6c.365-.365.63-.821.77-1.318l.425-1.535-1.593-1.73-.758 2.73a1.007 1.007 0 01-.258.439l-6 6a1.021 1.021 0 01-1.414 0 1 1 0 010-1.414l5.629-5.629c.126-.126.215-.284.26-.457l.896-3.469-.158-.174.004-.003-.87-.95a5.936 5.936 0 01-.562-.734z"/>
    </symbol>
    <symbol viewBox="0 0 50 50" id="icon-effort-2">
      <path d="M26 4a5 5 0 00-5 5 5 5 0 005 5 5 5 0 005-5 5 5 0 00-5-5zm22 .223c-5.505.792-10.315 3.719-13.576 7.916.353-.087.712-.141 1.074-.141a4.523 4.523 0 014.328 3.266 4.505 4.505 0 01-3.09 5.562l-6.605 1.889C30.049 23.465 30 24.227 30 25c0 10.577 7.827 19.303 18 20.762V4.222zm-12.373 9.814a2.758 2.758 0 00-.953.1L28.15 16h-6.992c-1.875 0-3.666.894-4.742 2.33l-5.74 6.463-.024.041a2.49 2.49 0 00-.021 3.326L18 36.45v6.907c0 1.308.941 2.5 2.242 2.63A2.5 2.5 0 0023 43.5v-8c0-.541-.175-1.063-.496-1.494l-4.541-5.998L24 21h4.432c.279 0 .556-.04.824-.115l6.931-1.98a2.501 2.501 0 001.633-3.337c-.363-.912-1.244-1.463-2.193-1.53zM10.105 30.578l-1.35 5.133-6.023 6.021A2.498 2.498 0 004.5 46c.64 0 1.28-.244 1.768-.732l6.5-6.5c.313-.313.538-.702.65-1.131l.676-2.57-3.989-4.489z"/>
    </symbol>
    <symbol viewBox="0 0 24 24" id="icon-external-distance-maps-locations-those-icons-lineal-those-icons">
      <path d="M9 0C6.794 0 5 1.794 5 4c0 2.043 3.235 6.323 3.604 6.805.004.005.01.008.015.013.033.04.075.071.121.1.016.01.03.023.047.031.003.001.003.005.006.006l.91.414a.498.498 0 00.662-.248.5.5 0 00-.248-.662l-.346-.158C10.72 9.008 13 5.718 13 4c0-2.206-1.794-4-4-4zm0 1c1.654 0 3 1.346 3 3 0 1.273-1.9 4.15-3 5.662C7.9 8.15 6 5.272 6 4c0-1.654 1.346-3 3-3zm0 2c-.551 0-1 .449-1 1 0 .551.449 1 1 1 .551 0 1-.449 1-1 0-.551-.449-1-1-1zm11 2c-2.206 0-4 1.794-4 4 0 1.49 1.717 4.165 2.791 5.693a.485.485 0 00-.156.186.5.5 0 00.209.642.498.498 0 00.486.873l.89-.445.003-.002c.003-.001.005-.004.007-.006a.496.496 0 00.166-.136C20.766 15.323 24 11.043 24 9c0-2.206-1.794-4-4-4zm0 1c1.654 0 3 1.346 3 3 0 1.273-1.9 4.15-3 5.662-1.1-1.512-3-4.39-3-5.662 0-1.654 1.346-3 3-3zm0 2c-.551 0-1 .449-1 1 0 .551.449 1 1 1 .551 0 1-.449 1-1 0-.551-.449-1-1-1zm-8.24 3.248a.5.5 0 00-.22.955l1.835.834a.498.498 0 00.662-.248.5.5 0 00-.248-.662l-1.836-.834a.493.493 0 00-.193-.045zm3.67 1.67a.5.5 0 00-.219.955l1.836.834a.498.498 0 00.662-.248.5.5 0 00-.248-.662l-1.836-.834a.506.506 0 00-.195-.045zM4 13c-2.206 0-4 1.794-4 4 0 2.043 3.235 6.323 3.604 6.805.026.034.063.054.097.08.02.015.036.036.059.049.073.04.154.066.24.066.011 0 .024-.007.035-.008a.5.5 0 00.188-.045h.002l.894-.447a.498.498 0 00.102-.826C6.296 21.143 8 18.484 8 17c0-2.206-1.794-4-4-4zm0 1c1.654 0 3 1.346 3 3 0 1.273-1.9 4.15-3 5.662C2.9 21.15 1 18.272 1 17c0-1.654 1.346-3 3-3zm0 2c-.551 0-1 .449-1 1 0 .551.449 1 1 1 .551 0 1-.449 1-1 0-.551-.449-1-1-1zm13.494.238a.5.5 0 00-.191.051l-1.578.79a.501.501 0 00-.225.671.501.501 0 00.672.223l1.578-.79a.501.501 0 00.225-.671.501.501 0 00-.48-.274zm-3.158 1.578a.5.5 0 00-.191.053l-1.579.79a.5.5 0 10.448.894l1.578-.791a.5.5 0 00-.256-.946zm-3.158 1.58a.498.498 0 00-.192.051l-1.578.79a.501.501 0 00-.224.671.501.501 0 00.671.223l1.579-.79a.501.501 0 00.224-.671.5.5 0 00-.48-.274zM8.02 20.975a.504.504 0 00-.19.052l-1.581.79a.5.5 0 00.447.895l1.58-.792a.498.498 0 00-.256-.945z"/>
    </symbol>
    <symbol viewBox="0 0 80 80" id="icon-pushups">
      <path d="M13 19c-3.854 0-7 3.146-7 7s3.146 7 7 7 7-3.146 7-7-3.146-7-7-7zm0 2c2.773 0 5 2.227 5 5s-2.227 5-5 5-5-2.227-5-5 2.227-5 5-5zm13.5 4c-3.578 0-6.5 2.922-6.5 6.5 0 .916.198 1.786.54 2.574l4.023 11.428-4.612 5.887a1 1 0 00-.18.359C19.32 52.391 19 53.147 19 54c0 2.197 1.803 4 4 4 1.17 0 2.17-.569 2.9-1.373a1 1 0 00.332-.28l.028-.036a1 1 0 00.017-.022.298.298 0 01.016-.023l5.775-7.711a1 1 0 00.143-.268C32.676 47.64 33 46.868 33 46c0-.586-.132-1.138-.352-1.629l.03.076-1.201-3.43 11.57 3.797L67.31 57.428a1 1 0 00.492.111c.53.229 1.07.461 1.697.461 2.473 0 4.5-2.027 4.5-4.5 0-1.56-.882-2.843-2.092-3.646l-.002-.002a1 1 0 00-.375-.364l-19.07-10.572c-.21-.71-1.215-3.796-4.707-5.225a1 1 0 000-.002c-3.102-1.268-17.53-7.603-18.05-7.832A6.457 6.457 0 0026.5 25zm0 2c.84 0 1.616.231 2.291.633a1 1 0 00.11.056c.51.224 14.85 6.524 18.097 7.852 2.894 1.184 3.736 4.346 3.736 4.346a1 1 0 00.485.627L69.725 50.77l.423-.847a1 1 0 00.45 1.344A2.48 2.48 0 0172 53.5c0 1.393-1.107 2.5-2.5 2.5-.44 0-.847-.123-1.229-.34a1 1 0 00-.189-.084L43.896 43.002a1 1 0 00-.15-.063l-13.103-4.3-1.278-3.645a1 1 0 00-1.002-.681 1 1 0 00-.886 1.343l1.433 4.086a1 1 0 00.008.024l.64 1.83a1 1 0 00.006.015l1.227 3.498a1 1 0 00.031.077c.115.257.178.528.178.814 0 .492-.182.93-.49 1.29a1 1 0 00-.217.439l.033-.186-5.633 7.523.446-.587.742.369a1 1 0 00-1.194.228 1 1 0 00-.007.01 1 1 0 00-.043.064c.043-.07.061-.095.011-.025a1 1 0 00-.027.035c-.366.51-.946.84-1.621.84-1.117 0-2-.883-2-2 0-.504.189-.952.51-1.316a1 1 0 00.158-.245l4.807-6.134a1 1 0 00.156-.95l-4.207-11.949a1 1 0 00-.031-.076A4.458 4.458 0 0122 31.5c0-2.498 2.002-4.5 4.5-4.5zM12 56a1 1 0 00-1 1 1 1 0 001 1 1 1 0 001-1 1 1 0 00-1-1zm4 0a1 1 0 00-1 1 1 1 0 001 1 1 1 0 001-1 1 1 0 00-1-1zm13 0a1 1 0 00-1 1 1 1 0 001 1 1 1 0 001-1 1 1 0 00-1-1zm4 0a1 1 0 00-1 1 1 1 0 001 1 1 1 0 001-1 1 1 0 00-1-1zm4 0a1 1 0 00-1 1 1 1 0 001 1 1 1 0 001-1 1 1 0 00-1-1zm4 0a1 1 0 00-1 1 1 1 0 001 1 1 1 0 001-1 1 1 0 00-1-1zm4 0a1 1 0 00-1 1 1 1 0 001 1 1 1 0 001-1 1 1 0 00-1-1zm4 0a1 1 0 00-1 1 1 1 0 001 1 1 1 0 001-1 1 1 0 00-1-1zm4 0a1 1 0 00-1 1 1 1 0 001 1 1 1 0 001-1 1 1 0 00-1-1zm4 0a1 1 0 00-1 1 1 1 0 001 1 1 1 0 001-1 1 1 0 00-1-1zm4 0a1 1 0 00-1 1 1 1 0 001 1 1 1 0 001-1 1 1 0 00-1-1zm15 0a1 1 0 00-1 1 1 1 0 001 1 1 1 0 001-1 1 1 0 00-1-1z"/>
    </symbol>
    <symbol viewBox="0 0 30 30" id="icon-sit-ups">
      <path d="M6 5a3 3 0 102.135 5.105l1.865.622-2.492 1.671-.004.016A2.985 2.985 0 006 15c0 .545.156 1.05.41 1.49l-.004.018 3.932 6.875.016.002A2.987 2.987 0 0013 25a2.98 2.98 0 002.223-1.002l.013.002 3.934-4.775 5.006 5.343.002.002a1 1 0 00.857.43 1 1 0 00.787-1.57L20.57 15.86c-.61-.88-1.819-1.054-2.675-.52l-.006-.007-.067.049c-.05.035-.099.071-.146.111L14.336 18l-2.691-4.414 2.101-2.918.035-.043a1 1 0 00.076-.111 1 1 0 00.002-.002 1 1 0 00-.617-1.483L8.996 7.97A2.997 2.997 0 006 5zm19.035 20H4a1 1 0 100 2h22a1 1 0 100-2h-.965z"/>
    </symbol>
    <symbol viewBox="0 0 50 50" id="icon-skipping-rope">
      <path d="M25 1a4.505 4.505 0 00-4.5 4.5c0 2.481 2.019 4.5 4.5 4.5s4.5-2.019 4.5-4.5S27.481 1 25 1zm-3.588 11c-1.608 0-3.132.7-4.178 1.922l-8.332 9.724A1.965 1.965 0 008.432 25H7.008a1 1 0 00-1 .982c-.002.091-.008.204-.008.344C6 39.277 14.378 50 25 50s19-10.723 19-23.674c0-.14-.006-.253-.008-.344a1 1 0 00-1-.982h-1.424a1.957 1.957 0 00-.466-1.352l-8.34-9.73A5.493 5.493 0 0028.588 12h-7.176zm9.248 7.254l7.608 7.15c.339.32.777.498 1.24.518a1 1 0 00.4.078h2.037C41.657 38.765 34.083 48 25 48S8.343 38.765 8.055 27h2.218a1 1 0 00.532-.145c.353-.068.69-.225.959-.478l7.57-7.117.627 24.71A2.072 2.072 0 0022.045 46a2.096 2.096 0 002.076-1.908l.961-11.291.754 6.334a2.115 2.115 0 002.1 1.865c1.149 0 2.077-.9 2.113-2.049l.611-19.697z"/>
    </symbol>
    <symbol viewBox="0 0 50 50" id="icon-stretching">
      <path d="M18 3c-1.583 0-2.898.63-3.748 1.586C13.402 5.542 13 6.778 13 8s.402 2.458 1.252 3.414S16.417 13 18 13c1.583 0 2.898-.63 3.748-1.586C22.598 10.458 23 9.222 23 8s-.402-2.458-1.252-3.414S19.583 3 18 3zm0 2c1.083 0 1.769.37 2.252.914C20.735 6.458 21 7.222 21 8c0 .778-.265 1.542-.748 2.086-.483.544-1.169.914-2.252.914-1.083 0-1.769-.37-2.252-.914C15.265 9.542 15 8.778 15 8c0-.778.265-1.542.748-2.086C16.231 5.37 16.917 5 18 5zm5 9c-1.171 0-2.257.312-3.113.973-.857.66-1.444 1.642-1.737 2.814-.988 3.953-.609 7.769.163 11.213H14.5a3.515 3.515 0 00-3.5 3.5v12c0 1.921 1.579 3.5 3.5 3.5s3.5-1.579 3.5-3.5V36h2.98a88.643 88.643 0 002.229 3.52c1.7 2.574 3.287 4.763 3.287 4.763l-.068-.107a3.503 3.503 0 002.386 1.756l10 2c.23.046.46.068.688.068A3.523 3.523 0 0043 44.58c.05-1.755-1.259-3.2-2.916-3.531l-8.424-1.924-3.27-5.97a4.863 4.863 0 00.485-2.419c.367.15.745.266 1.123.266a1 1 0 00.002 0 3.012 3.012 0 002.758-1.82l3-7a3.013 3.013 0 00-1.54-3.922l-7.572-3.586A7.006 7.006 0 0023.65 14H23zm0 2h.65c.74 0 1.472.164 2.141.48l7.594 3.596a1 1 0 00.021.012c.51.226.732.793.512 1.307l-3 7a.995.995 0 01-1.361.501c-.457-.225-.657-.867-.424-1.41l2.17-5.066a1 1 0 00-.512-1.309l-3.59-1.593a1 1 0 00-1.387.72c-.63 3.225.236 6.598 1.096 10.035a2.958 2.958 0 01-.441 2.405 1 1 0 00-.05 1.04l3.704 6.762a1 1 0 00.654.495l8.889 2.029a1 1 0 00.027.006c.76.151 1.33.806 1.309 1.513a1.484 1.484 0 01-1.5 1.477c-.096 0-.195-.01-.295-.03l-10-2a1 1 0 00-.002 0 1.497 1.497 0 01-1.021-.753 1 1 0 00-.069-.108s-1.566-2.16-3.238-4.691c-1.672-2.532-3.464-5.581-3.797-6.729a59.748 59.748 0 01-.492-1.804 1 1 0 000-.002 1 1 0 00-.055-.225c-.899-3.573-1.428-7.446-.443-11.385a1 1 0 000-.002c.207-.83.559-1.36 1.017-1.714.46-.354 1.064-.557 1.893-.557zm4.785 5.965l1.291.574-1.187 2.768c-.195-1.197-.161-2.278-.104-3.342zM14.5 31h4.313c.113.421.229.841.347 1.248.15.519.41 1.117.723 1.752H17a1 1 0 00-1 1v9.5c0 .84-.66 1.5-1.5 1.5s-1.5-.66-1.5-1.5v-12c0-.84.66-1.5 1.5-1.5z"/>
    </symbol>
    <symbol viewBox="0 0 64 64" id="icon-timer">
      <path d="M32 6v11h3l1.797-6.469C46.639 12.721 54 21.498 54 32c0 12.15-9.85 22-22 22s-22-9.85-22-22c0-6.346 2.69-12.06 6.988-16.074l-3.027-2.639C9.056 18.017 6 24.65 6 32c0 14.359 11.641 26 26 26s26-11.641 26-26S46.359 6 32 6zM20.979 19.564l-1.415 1.415 8.493 10.353A4 4 0 0032 36a4 4 0 000-8 4 4 0 00-.664.06l-10.357-8.496z"/>
    </symbol>
  </defs>
</svg>